<?xml version="1.0" standalone="no"?>
<!DOCTYPE svg PUBLIC "-//W3C//DTD SVG 20010904//EN"
 "http://www.w3.org/TR/2001/REC-SVG-20010904/DTD/svg10.dtd">
<svg version="1.0" xmlns="http://www.w3.org/2000/svg"
 width="512.000000pt" height="512.000000pt" viewBox="0 0 512.000000 512.000000"
 preserveAspectRatio="xMidYMid meet">
<metadata>
Created by potrace 1.16, written by Peter Selinger 2001-2019
</metadata>
<g transform="translate(0.000000,512.000000) scale(0.100000,-0.100000)"
fill="#000000" stroke="none">
<path d="M3160 4731 c0 -11 5 -23 11 -27 8 -4 9 0 4 15 -5 16 -2 21 12 21 11
0 25 -6 33 -12 12 -11 12 -10 1 5 -19 24 -61 23 -61 -2z"/>
<path d="M1902 4729 c2 -6 8 -10 13 -10 5 0 11 4 13 10 2 6 -4 11 -13 11 -9 0
-15 -5 -13 -11z"/>
<path d="M2307 4723 c-4 -3 -7 -14 -7 -24 0 -15 -5 -17 -32 -12 -27 5 -30 4
-25 -11 4 -10 7 -24 7 -32 0 -16 36 -19 45 -4 3 6 14 10 24 10 22 0 34 36 20
62 -10 19 -21 23 -32 11z"/>
<path d="M2690 4705 c-54 -57 -13 -145 66 -145 47 0 69 13 83 49 14 32 6 57
-32 99 -29 32 -86 30 -117 -3z"/>
<path d="M1392 4708 c-15 -18 1 -41 24 -36 23 4 26 41 3 46 -9 1 -21 -3 -27
-10z"/>
<path d="M1957 4704 c-4 -11 -18 -27 -32 -34 -19 -10 -22 -16 -14 -27 17 -19
62 27 57 59 -4 22 -4 22 -11 2z"/>
<path d="M3232 4685 c0 -16 2 -22 5 -12 2 9 2 23 0 30 -3 6 -5 -1 -5 -18z"/>
<path d="M4221 4707 c16 -12 79 -45 79 -42 0 7 -63 45 -74 45 -5 0 -7 -1 -5
-3z"/>
<path d="M876 4681 c-10 -11 -16 -28 -13 -38 4 -15 5 -14 6 4 1 25 35 48 57
39 17 -7 18 -33 2 -39 -7 -2 -10 -8 -6 -12 10 -11 28 4 28 24 0 40 -45 54 -74
22z"/>
<path d="M3529 4680 l-24 -21 33 16 c21 10 46 14 65 11 25 -5 27 -4 12 3 -33
16 -61 12 -86 -9z"/>
<path d="M1670 4680 c-17 -6 -8 -7 30 -3 38 4 66 0 90 -11 32 -14 33 -15 5 -8
-39 9 -101 9 -145 0 -24 -6 -30 -5 -20 2 17 11 10 13 -14 4 -9 -3 -14 -10 -11
-14 3 -4 -2 -11 -11 -14 -10 -4 -13 -2 -8 7 8 15 -31 -26 -68 -71 -38 -45 -61
-129 -53 -187 11 -71 61 -145 125 -182 33 -21 66 -32 85 -31 l30 1 -32 4 c-55
7 -37 18 30 18 80 1 141 34 186 101 35 54 46 97 38 161 -6 54 -28 87 -86 128
-37 26 -51 30 -110 30 -58 0 -75 -4 -117 -30 -136 -85 -144 -248 -17 -355 36
-31 37 -31 7 -16 -38 19 -92 78 -110 122 -23 55 -18 125 14 184 65 126 224
167 345 90 100 -63 130 -191 72 -299 -35 -64 -97 -114 -162 -131 -27 -7 -42
-15 -35 -17 24 -9 105 29 150 71 55 51 81 102 91 180 l8 61 2 -50 c1 -64 -12
-112 -47 -163 -35 -52 -71 -79 -141 -108 -53 -22 -54 -24 -22 -24 78 0 178 79
219 173 46 106 -28 290 -141 352 -51 28 -134 40 -177 25z m240 -87 l25 -28
-35 30 c-55 47 -56 48 -35 37 11 -6 31 -23 45 -39z m-102 -12 c45 -23 77 -56
91 -94 55 -145 -99 -313 -248 -269 -85 26 -144 131 -120 215 7 23 12 45 11 50
-1 4 3 7 10 7 6 0 9 3 6 6 -8 7 21 36 59 61 24 15 23 13 -9 -21 -21 -21 -45
-58 -54 -83 -15 -39 -16 -52 -5 -92 19 -70 90 -133 148 -130 10 0 0 7 -22 15
-75 28 -115 83 -115 161 0 80 55 143 137 159 44 8 121 -30 150 -75 54 -80 4
-194 -92 -215 -24 -5 -41 0 -78 24 -84 53 -99 136 -36 200 17 16 26 30 21 30
-16 0 -72 -69 -72 -90 0 -10 -5 -20 -11 -22 -16 -5 -2 -61 23 -93 32 -41 93
-75 135 -75 97 0 176 124 144 223 -10 30 -71 102 -71 83 0 -4 -7 0 -16 8 -8 9
-24 16 -35 16 -10 0 -19 5 -19 10 0 15 27 12 68 -9z m-95 2 c-7 -2 -19 -2 -25
0 -7 3 -2 5 12 5 14 0 19 -2 13 -5z"/>
<path d="M1728 4533 c7 -3 16 -2 19 1 4 3 -2 6 -13 5 -11 0 -14 -3 -6 -6z"/>
<path d="M1776 4512 c39 -31 57 -79 44 -116 -13 -42 -35 -62 -86 -80 -38 -14
-38 -15 -9 -15 67 -2 135 76 120 138 -7 28 -62 91 -79 91 -6 0 -1 -8 10 -18z"/>
<path d="M1656 4459 c-25 -29 -37 -87 -16 -74 6 3 10 14 10 24 0 29 44 63 84
64 47 1 35 17 -14 17 -30 0 -43 -6 -64 -31z"/>
<path d="M2487 4683 c-12 -11 -8 -23 8 -23 8 0 15 7 15 15 0 16 -12 20 -23 8z"/>
<path d="M2979 4671 c-32 -25 -31 -82 1 -116 33 -35 91 -35 119 1 29 37 26 70
-8 105 -35 34 -77 38 -112 10z m110 -32 c31 -55 -21 -114 -77 -87 -38 18 -50
59 -28 93 24 36 83 33 105 -6z"/>
<path d="M3665 4680 c3 -5 8 -10 11 -10 2 0 4 5 4 10 0 6 -5 10 -11 10 -5 0
-7 -4 -4 -10z"/>
<path d="M513 4635 c-51 -52 -55 -66 -10 -31 19 15 41 26 50 26 23 0 32 20 16
35 -12 11 -21 6 -56 -30z"/>
<path d="M1010 4658 c-59 -41 -75 -72 -75 -147 0 -58 4 -74 29 -109 32 -47
112 -92 160 -92 46 1 110 33 136 70 46 65 35 172 -26 239 -36 41 -84 67 -106
58 -7 -3 -4 -6 8 -6 12 -1 39 -14 61 -30 132 -96 74 -303 -85 -303 -107 0
-179 80 -170 189 6 66 29 100 88 131 24 12 37 22 29 22 -9 0 -31 -10 -49 -22z"/>
<path d="M2136 4654 c-19 -18 -21 -55 -4 -72 20 -20 32 -13 14 7 -23 25 -13
57 22 70 24 8 24 10 5 10 -12 1 -29 -6 -37 -15z"/>
<path d="M4232 4635 c38 -38 68 -107 68 -157 0 -57 -113 -144 -163 -125 -13 5
0 11 47 22 35 7 106 75 106 100 0 12 -10 5 -29 -22 -35 -49 -84 -73 -146 -73
-53 0 -97 22 -116 57 -7 12 -14 21 -17 18 -13 -12 55 -77 111 -106 53 -27 69
-31 114 -26 65 7 97 28 117 78 39 96 -4 208 -99 256 -30 15 -29 15 7 -22z"/>
<path d="M4395 4660 c4 -6 11 -8 16 -5 14 9 11 15 -7 15 -8 0 -12 -5 -9 -10z"/>
<path d="M4326 4640 c12 -14 27 -34 33 -45 11 -19 12 -19 6 3 -8 28 9 29 29 0
17 -24 11 -42 -10 -34 -17 7 -18 -6 -2 -22 17 -17 45 -15 52 3 7 20 -4 46 -17
38 -6 -4 -8 1 -5 14 3 11 0 20 -6 21 -6 1 -21 3 -33 5 -12 2 -33 12 -45 23
l-23 19 21 -25z"/>
<path d="M3770 4630 c0 -28 -25 -36 -55 -16 -26 17 -70 21 -79 8 -3 -5 8 -6
24 -4 19 3 38 -3 56 -17 15 -12 37 -21 50 -21 20 0 24 5 24 29 0 17 -4 33 -10
36 -5 3 -10 -3 -10 -15z"/>
<path d="M4072 4624 c-49 -34 -66 -109 -35 -154 10 -14 16 -27 14 -29 -8 -10
57 -41 84 -40 29 1 29 2 -6 8 -55 11 -74 30 -78 78 -5 77 42 133 114 133 29 0
36 3 25 10 -23 15 -93 12 -118 -6z"/>
<path d="M3855 4620 c-3 -6 1 -7 9 -4 18 7 21 14 7 14 -6 0 -13 -4 -16 -10z"/>
<path d="M361 4609 c-13 -5 -21 -12 -18 -15 3 -3 18 1 34 10 31 17 21 20 -16
5z"/>
<path d="M891 4604 c0 -11 3 -14 6 -6 3 7 2 16 -1 19 -3 4 -6 -2 -5 -13z"/>
<path d="M3323 4613 c20 -2 54 -2 75 0 20 2 3 4 -38 4 -41 0 -58 -2 -37 -4z"/>
<path d="M411 4607 c2 -1 13 -9 24 -17 19 -14 19 -14 6 3 -7 9 -18 17 -24 17
-6 0 -8 -1 -6 -3z"/>
<path d="M915 4599 c-4 -6 -5 -12 -2 -15 2 -3 7 2 10 11 7 17 1 20 -8 4z"/>
<path d="M2459 4594 c112 -24 188 -91 217 -190 67 -233 -173 -424 -386 -308
-88 48 -134 125 -134 226 0 120 71 219 186 259 31 11 44 18 30 19 -33 0 -112
-43 -149 -82 -123 -128 -100 -325 51 -436 91 -66 104 -71 197 -72 108 0 173
28 224 99 104 143 57 334 -111 449 -33 22 -133 53 -169 51 -11 -1 9 -7 44 -15z"/>
<path d="M3248 4603 c7 -3 16 -2 19 1 4 3 -2 6 -13 5 -11 0 -14 -3 -6 -6z"/>
<path d="M3471 4596 c2 -2 15 -9 29 -15 24 -11 24 -11 6 3 -16 13 -49 24 -35
12z"/>
<path d="M3885 4590 c3 -5 8 -10 11 -10 2 0 4 5 4 10 0 6 -5 10 -11 10 -5 0
-7 -4 -4 -10z"/>
<path d="M1051 4564 c-41 -34 -44 -92 -6 -129 13 -14 29 -25 36 -25 6 0 1 8
-11 18 -21 17 -21 19 -7 55 20 46 77 78 107 59 16 -10 18 -9 13 4 -7 18 -55
44 -82 44 -11 0 -33 -12 -50 -26z"/>
<path d="M802 4551 c13 -22 38 -36 38 -22 0 5 -11 16 -25 25 -25 17 -25 16
-13 -3z"/>
<path d="M3559 4542 c24 -20 41 -27 55 -23 19 5 19 6 -4 9 -14 2 -38 13 -55
24 -27 18 -26 17 4 -10z"/>
<path d="M322 4535 c0 -16 2 -22 5 -12 2 9 2 23 0 30 -3 6 -5 -1 -5 -18z"/>
<path d="M550 4551 c0 -4 11 -6 25 -3 14 2 25 6 25 8 0 2 -11 4 -25 4 -14 0
-25 -4 -25 -9z"/>
<path d="M705 4545 c44 -17 99 -66 121 -107 19 -37 20 -36 -28 -50 -33 -10
-42 -10 -46 0 -13 41 -83 73 -141 64 -33 -5 -109 -68 -96 -80 4 -4 17 5 29 21
40 49 110 56 169 15 38 -27 34 -40 -21 -63 -38 -16 -70 -20 -159 -20 l-113 0
-1 35 c-1 36 -3 34 -13 -12 -4 -16 -13 -28 -21 -28 -8 0 -15 -9 -15 -20 0 -11
6 -20 14 -20 8 0 18 -19 25 -44 14 -56 49 -116 67 -116 7 0 30 -11 50 -25 20
-14 45 -25 55 -25 11 0 19 -9 21 -22 3 -24 11 -25 71 -14 29 5 36 3 45 -16 10
-21 11 -21 6 7 -4 26 0 33 31 53 53 34 97 131 103 229 4 60 7 71 18 62 8 -6
21 -9 29 -5 18 7 20 36 3 37 -7 1 -21 2 -30 3 -10 0 -30 21 -46 46 -32 50 -92
96 -137 105 -23 4 -21 2 10 -10z m132 -251 c-7 -68 -35 -131 -83 -184 -36 -39
-39 -41 -52 -23 -14 17 -14 17 -9 -4 4 -17 -1 -24 -26 -32 -44 -16 -46 -15
-36 27 15 64 13 69 -38 82 l-48 12 32 28 c31 28 32 30 18 57 -9 17 -15 21 -15
12 0 -9 -7 -22 -16 -30 -13 -10 -17 -10 -25 2 -5 8 -9 25 -9 37 0 22 3 23 43
17 23 -4 44 -11 47 -15 3 -4 20 -30 39 -58 18 -29 37 -52 42 -52 15 0 39 57
47 111 6 48 10 53 42 64 19 7 39 10 44 7 5 -2 6 -29 3 -58z m-123 -29 c-11
-46 -20 -48 -45 -8 l-20 32 28 15 c36 19 48 7 37 -39z m-195 -15 c11 -36 10
-43 -11 -70 -12 -16 -25 -30 -30 -30 -17 0 -63 114 -52 131 3 5 22 9 43 9 35
0 39 -3 50 -40z m62 -112 c33 -9 38 -15 33 -32 -9 -29 -9 -29 -48 -16 -39 12
-61 34 -51 50 8 13 19 13 66 -2z"/>
<path d="M497 4526 c-30 -24 -67 -74 -67 -91 0 -5 8 4 19 20 10 17 33 43 51
58 39 34 37 44 -3 13z"/>
<path d="M3279 4537 c-88 -33 -141 -84 -181 -174 -17 -38 -20 -60 -16 -132 5
-83 17 -127 67 -250 20 -49 20 -53 4 -46 -10 3 -31 9 -48 12 l-30 5 34 -19
c19 -10 44 -30 54 -45 25 -34 27 -106 4 -142 -23 -34 -22 -36 18 -36 38 0 48
12 59 73 4 20 11 37 16 37 4 0 31 -26 59 -57 28 -32 51 -52 51 -45 0 7 -33 47
-74 90 -62 64 -81 92 -112 167 -36 86 -38 95 -39 205 0 131 14 176 80 248 93
104 243 109 350 14 24 -22 23 -19 -5 11 -70 76 -207 115 -291 84z"/>
<path d="M404 4518 l-19 -23 23 19 c21 18 27 26 19 26 -2 0 -12 -10 -23 -22z"/>
<path d="M3668 4533 c6 -2 18 -2 25 0 6 3 1 5 -13 5 -14 0 -19 -2 -12 -5z"/>
<path d="M2763 4515 c-3 -9 -3 -19 1 -22 3 -4 6 1 6 10 0 8 6 18 13 20 9 4 9
6 -1 6 -7 1 -15 -6 -19 -14z"/>
<path d="M2844 4514 c18 -17 21 -50 6 -59 -16 -10 -12 -25 5 -19 23 9 28 43
11 69 -9 14 -21 25 -27 25 -6 0 -3 -7 5 -16z"/>
<path d="M1192 4495 c0 -16 2 -22 5 -12 2 9 2 23 0 30 -3 6 -5 -1 -5 -18z"/>
<path d="M2332 4499 c-129 -64 -141 -254 -20 -334 38 -25 38 -25 26 -3 -7 13
-24 36 -37 52 -20 26 -23 38 -19 88 5 65 25 99 78 136 65 44 173 22 203 -41
53 -110 -25 -237 -144 -237 -37 0 -49 -4 -49 -15 0 -20 78 -20 128 0 70 30
121 102 122 173 0 69 -68 167 -133 191 -45 17 -108 13 -155 -10z"/>
<path d="M3762 4495 c42 -47 52 -82 32 -114 -16 -23 -16 -24 -1 -13 38 32 27
83 -30 132 l-28 25 27 -30z"/>
<path d="M331 4484 c0 -11 3 -14 6 -6 3 7 2 16 -1 19 -3 4 -6 -2 -5 -13z"/>
<path d="M3654 4484 c-8 -3 0 -25 22 -61 57 -95 68 -215 26 -286 -9 -16 -41
-43 -71 -60 -45 -26 -68 -31 -136 -35 -101 -5 -138 6 -202 60 l-48 42 35 -38
c51 -55 127 -89 189 -84 l50 3 -56 -57 -56 -57 45 -50 c26 -28 63 -85 85 -126
35 -70 63 -96 63 -59 0 8 4 13 10 9 12 -7 70 17 138 58 50 30 52 33 52 74 0
27 -5 43 -12 43 -7 0 -24 11 -38 25 -25 24 -26 24 -27 4 -3 -31 -20 -47 -86
-81 -43 -21 -67 -28 -86 -23 -24 6 -21 9 42 41 81 42 88 53 11 19 -68 -30 -84
-31 -84 -5 0 43 29 90 65 107 33 16 39 16 63 2 20 -11 27 -23 27 -46 0 -27 2
-30 18 -21 35 18 -2 79 -59 98 -50 17 -102 -11 -131 -70 -23 -44 -23 -44 -23
-13 0 60 86 123 169 123 13 0 45 10 69 21 50 25 70 60 73 130 3 59 -7 97 -47
186 -20 44 -32 83 -29 94 5 14 0 22 -20 29 -14 5 -27 10 -28 9 -1 0 -7 -3 -13
-5z m96 -625 c0 -36 -20 -59 -78 -88 -117 -58 -167 -46 -53 14 77 41 111 68
111 91 0 8 5 12 10 9 6 -3 10 -15 10 -26z"/>
<path d="M1310 4466 c0 -9 7 -16 16 -16 9 0 14 5 12 12 -6 18 -28 21 -28 4z"/>
<path d="M2965 4469 c-4 -6 -5 -12 -2 -15 2 -3 7 2 10 11 7 17 1 20 -8 4z"/>
<path d="M348 4441 c-6 -22 -9 -23 -25 -11 -17 13 -17 13 -1 -5 21 -22 42 -9
36 21 -3 16 -5 15 -10 -5z"/>
<path d="M4561 4451 c62 -12 103 -35 133 -73 59 -79 52 -182 -16 -245 -56 -52
-131 -63 -198 -28 -39 20 -89 75 -100 110 l-10 30 5 -35 c3 -24 18 -47 47 -74
l41 -40 -46 -42 c-26 -23 -47 -47 -47 -52 0 -6 13 -15 29 -20 24 -8 37 -7 67
9 27 13 59 19 110 19 142 0 230 81 228 209 -1 69 -20 107 -79 159 -58 51 -107
74 -165 78 l-45 3 46 -8z"/>
<path d="M2740 4440 c0 -5 5 -10 11 -10 5 0 7 5 4 10 -3 6 -8 10 -11 10 -2 0
-4 -4 -4 -10z"/>
<path d="M3418 4422 c15 -15 29 -26 31 -25 6 4 -41 53 -50 53 -4 0 4 -13 19
-28z"/>
<path d="M4455 4432 c-16 -11 -37 -27 -45 -38 -11 -14 -9 -14 10 3 14 12 41
29 60 37 19 8 28 15 20 16 -8 0 -28 -8 -45 -18z"/>
<path d="M1140 4420 c-9 -6 -10 -10 -3 -10 6 0 15 5 18 10 8 12 4 12 -15 0z"/>
<path d="M2955 4420 c-3 -5 -1 -10 5 -10 6 0 8 -4 5 -10 -7 -11 8 -14 18 -4 7
8 -3 34 -13 34 -5 0 -12 -4 -15 -10z"/>
<path d="M3617 4375 c9 -19 18 -33 21 -31 4 5 -26 66 -33 66 -3 0 3 -16 12
-35z"/>
<path d="M591 4387 c-14 -6 -26 -18 -29 -25 -3 -10 4 -9 28 3 20 10 44 15 61
11 31 -6 40 8 13 18 -24 9 -46 7 -73 -7z"/>
<path d="M2400 4393 c-43 -16 -55 -87 -20 -118 43 -39 120 -10 120 45 0 49
-55 90 -100 73z"/>
<path d="M2850 4389 c-12 -8 -9 -10 12 -6 25 4 27 2 22 -22 -6 -25 -5 -25 11
-9 34 32 -6 65 -45 37z"/>
<path d="M3260 4359 c-7 -11 -10 -23 -7 -25 2 -2 9 7 15 21 14 30 7 33 -8 4z"/>
<path d="M3451 4356 c0 -15 -12 -41 -26 -58 -20 -24 -25 -40 -24 -81 l1 -52
12 38 c7 21 26 49 44 63 35 28 40 45 18 64 -8 6 -17 21 -19 33 -3 17 -5 16 -6
-7z"/>
<path d="M2925 4350 c-10 -11 -13 -20 -7 -20 7 0 11 -5 10 -11 -2 -6 3 -14 11
-17 10 -3 12 1 8 17 -3 14 0 24 9 28 8 3 11 9 8 14 -8 14 -19 11 -39 -11z"/>
<path d="M4385 4359 c-4 -6 -5 -12 -2 -15 2 -3 7 2 10 11 7 17 1 20 -8 4z"/>
<path d="M3842 4293 l-21 -68 29 33 c21 23 30 43 30 67 0 54 -14 42 -38 -32z"/>
<path d="M4509 4321 c-45 -45 -37 -100 18 -129 12 -7 30 -12 41 -12 26 0 72
37 72 58 0 12 -4 9 -13 -8 -16 -33 -58 -47 -92 -32 -25 11 -25 13 -10 41 30
58 88 79 105 39 9 -23 9 -23 9 -1 1 25 -52 73 -81 73 -11 0 -33 -13 -49 -29z"/>
<path d="M4371 4314 c0 -11 3 -14 6 -6 3 7 2 16 -1 19 -3 4 -6 -2 -5 -13z"/>
<path d="M3242 4295 c0 -16 2 -22 5 -12 2 9 2 23 0 30 -3 6 -5 -1 -5 -18z"/>
<path d="M3642 4300 c0 -14 2 -19 5 -12 2 6 2 18 0 25 -3 6 -5 1 -5 -13z"/>
<path d="M2799 4276 c-15 -32 7 -77 43 -90 23 -8 32 -6 53 14 l25 23 0 -32 c0
-19 4 -30 10 -26 21 13 10 64 -21 100 -17 19 -35 35 -41 35 -5 0 -2 -7 6 -16
9 -8 16 -22 16 -29 0 -13 -37 -45 -52 -45 -12 0 -38 31 -38 45 0 7 7 21 16 29
8 9 11 16 4 16 -6 0 -15 -11 -21 -24z"/>
<path d="M3899 4271 c-42 -42 -40 -92 5 -137 37 -37 78 -44 111 -20 10 7 28
12 39 9 20 -3 20 -3 2 5 -14 6 -16 11 -8 16 7 4 12 25 12 48 0 32 -7 47 -34
74 -44 44 -86 46 -127 5z m131 -66 c16 -19 4 -52 -25 -71 -51 -33 -92 36 -43
70 28 20 52 20 68 1z"/>
<path d="M4150 4296 c0 -2 7 -6 15 -10 8 -3 15 -1 15 4 0 6 -7 10 -15 10 -8 0
-15 -2 -15 -4z"/>
<path d="M1263 4283 c20 -2 54 -2 75 0 20 2 3 4 -38 4 -41 0 -58 -2 -37 -4z"/>
<path d="M4361 4264 c0 -11 3 -14 6 -6 3 7 2 16 -1 19 -3 4 -6 -2 -5 -13z"/>
<path d="M3240 4225 c0 -14 4 -25 9 -25 4 0 6 11 3 25 -2 14 -6 25 -8 25 -2 0
-4 -11 -4 -25z"/>
<path d="M1370 4213 c0 -38 -15 -51 -71 -63 -41 -8 -39 -8 26 -7 66 2 70 3 79
30 8 23 6 31 -12 49 l-22 22 0 -31z"/>
<path d="M4160 4218 c0 -19 2 -20 10 -8 13 19 13 30 0 30 -5 0 -10 -10 -10
-22z"/>
<path d="M1013 4223 c9 -2 25 -2 35 0 9 3 1 5 -18 5 -19 0 -27 -2 -17 -5z"/>
<path d="M1104 4206 c94 -36 148 -106 154 -200 7 -110 -43 -182 -155 -222
-116 -41 -232 17 -274 138 -10 29 -18 44 -18 33 -1 -66 88 -173 166 -199 69
-24 113 -20 178 14 32 17 59 29 59 28 1 -2 14 -23 30 -46 15 -24 25 -50 22
-58 -3 -8 -1 -14 4 -14 5 0 12 16 16 36 6 31 2 40 -26 69 l-33 34 26 30 c90
107 -9 343 -153 366 l-35 6 39 -15z"/>
<path d="M1967 4176 c-43 -16 -107 -62 -107 -78 0 -6 18 6 39 25 46 42 106 61
165 53 29 -4 35 -3 21 3 -29 14 -74 12 -118 -3z"/>
<path d="M4223 4162 c10 -29 9 -34 -11 -55 -22 -22 -23 -22 -55 -4 l-32 17 24
-20 c47 -40 95 -38 112 7 6 15 0 29 -21 54 l-29 34 12 -33z"/>
<path d="M310 4165 c-16 -19 3 -45 32 -45 24 0 34 26 18 45 -16 19 -34 19 -50
0z"/>
<path d="M859 4153 c-13 -16 -12 -17 4 -4 9 7 17 15 17 17 0 8 -8 3 -21 -13z"/>
<path d="M2110 4166 c0 -2 7 -7 16 -10 8 -3 12 -2 9 4 -6 10 -25 14 -25 6z"/>
<path d="M2842 4153 c-84 -5 -70 -23 18 -23 66 0 97 11 64 24 -9 3 -16 5 -17
4 -1 -1 -30 -3 -65 -5z"/>
<path d="M961 4128 c-77 -38 -102 -135 -48 -186 101 -95 273 -36 253 86 -7 44
-58 99 -106 112 -47 13 -49 13 -99 -12z m119 -27 c26 -13 40 -31 52 -65 10
-25 13 -46 8 -46 -6 0 -10 -6 -10 -14 0 -8 -12 -24 -26 -35 -39 -31 -107 -28
-156 5 -51 36 -57 64 -24 113 43 62 93 76 156 42z"/>
<path d="M998 4058 c-27 -22 -30 -53 -7 -81 11 -15 28 -27 38 -27 31 0 61 30
61 60 0 47 -56 76 -92 48z"/>
<path d="M1977 4136 c-46 -17 -61 -29 -88 -73 -27 -43 -30 -131 -5 -145 14 -8
16 -35 16 -208 0 -117 4 -200 9 -200 12 0 19 312 9 404 -9 79 6 125 54 160 34
24 106 26 142 3 37 -25 59 -73 51 -113 -7 -40 -66 -104 -95 -104 -11 0 -20 -5
-20 -11 0 -16 59 -3 83 19 11 9 28 36 38 60 37 84 49 44 49 -159 l0 -139 33 0
33 0 -7 53 c-4 28 -8 93 -8 143 -1 107 -17 160 -69 228 -59 78 -148 111 -225
82z"/>
<path d="M1490 4120 c-11 -8 -7 -9 15 -4 37 8 45 14 19 14 -10 0 -26 -5 -34
-10z"/>
<path d="M1613 4116 c21 -8 48 -22 59 -33 59 -54 78 -171 36 -233 -55 -81
-132 -100 -223 -56 -66 33 -104 89 -106 157 -2 32 -3 36 -6 15 -9 -55 7 -94
59 -151 50 -55 111 -95 143 -95 9 0 13 -4 10 -10 -4 -6 13 -10 44 -10 28 0 51
5 53 11 2 7 25 11 55 11 57 -2 55 -4 68 91 12 78 -1 130 -50 195 -52 72 -100
110 -146 117 l-34 6 38 -15z m143 -372 c-5 -13 -10 -14 -18 -6 -6 6 -8 18 -4
28 5 13 10 14 18 6 6 -6 8 -18 4 -28z"/>
<path d="M1436 4089 c-14 -11 -31 -30 -37 -42 -9 -20 -8 -20 9 2 11 13 30 32
43 42 13 10 21 19 18 19 -4 0 -18 -9 -33 -21z"/>
<path d="M816 4085 c-3 -9 -6 -24 -5 -33 0 -9 5 -4 10 12 9 32 6 48 -5 21z"/>
<path d="M3508 4093 c7 -3 16 -2 19 1 4 3 -2 6 -13 5 -11 0 -14 -3 -6 -6z"/>
<path d="M407 4064 c-10 -10 -9 -26 2 -20 9 6 34 -18 26 -25 -2 -3 5 -10 15
-17 12 -7 20 -8 20 -2 0 16 -55 72 -63 64z"/>
<path d="M4759 4044 c-21 -24 -22 -26 -3 -16 25 13 50 42 37 42 -5 0 -20 -12
-34 -26z"/>
<path d="M4797 4028 c-21 -21 -32 -38 -25 -38 17 0 72 55 67 67 -2 4 -21 -9
-42 -29z"/>
<path d="M1996 4029 c-34 -27 -36 -77 -3 -107 28 -27 37 -28 37 -3 0 32 40 73
66 68 15 -3 24 1 24 9 0 18 -49 54 -75 54 -12 0 -34 -9 -49 -21z"/>
<path d="M2404 3975 c-10 -25 4 -45 30 -45 25 0 39 20 30 45 -4 8 -17 15 -30
15 -14 0 -27 -7 -30 -15z"/>
<path d="M2500 3974 c-11 -12 -10 -18 3 -32 16 -15 18 -15 38 4 17 18 18 22 5
33 -12 10 -14 9 -9 -7 6 -23 -14 -39 -29 -24 -8 8 -7 16 2 27 7 8 10 15 7 15
-2 0 -10 -7 -17 -16z"/>
<path d="M4581 3963 c0 -17 -7 -34 -13 -36 -7 -3 1 -6 17 -6 17 0 25 3 18 7
-6 4 -13 21 -16 37 l-4 30 -2 -32z"/>
<path d="M1320 3960 c0 -5 5 -10 10 -10 6 0 10 5 10 10 0 6 -4 10 -10 10 -5 0
-10 -4 -10 -10z"/>
<path d="M335 3935 c-37 -36 -34 -86 6 -119 37 -31 63 -33 107 -6 27 17 32 25
32 59 0 57 -31 91 -81 91 -29 0 -47 -7 -64 -25z"/>
<path d="M641 3926 l-24 -31 28 27 c16 15 27 29 24 31 -2 3 -15 -10 -28 -27z"/>
<path d="M2855 3946 c-154 -38 -292 -167 -345 -321 -29 -83 -28 -85 30 -85 45
0 50 2 50 22 0 12 11 41 25 65 25 42 25 43 5 43 -22 0 -25 8 -10 30 9 13 12
13 23 0 22 -29 75 -60 99 -59 20 0 19 2 -8 12 -17 7 -41 19 -54 27 -22 15 -22
17 -6 48 21 40 135 126 196 147 60 22 180 31 207 16 21 -11 21 -11 5 29 l-17
40 -75 -1 c-41 0 -97 -6 -125 -13z"/>
<path d="M4270 3781 c0 -99 -3 -186 -6 -195 -5 -13 -24 -16 -105 -16 -54 0
-99 -2 -99 -4 0 -2 7 -17 15 -32 28 -53 13 -155 -27 -190 -21 -19 -21 -19 -14
6 24 84 27 106 16 152 -7 26 -16 51 -21 54 -5 3 -9 15 -9 28 0 22 -17 46 -32
46 -4 0 -8 -108 -8 -240 l0 -239 43 -19 c24 -11 72 -47 105 -80 213 -208 178
-536 -74 -698 -102 -66 -247 -82 -351 -39 -48 19 -50 26 -25 83 17 38 19 39
43 26 41 -21 123 -28 140 -13 20 19 110 61 117 54 3 -3 -3 -12 -14 -21 -18
-14 -18 -14 5 -3 47 22 119 100 142 152 33 73 34 201 1 271 -21 46 -106 156
-120 156 -4 0 -6 -88 -4 -195 l3 -195 -25 -25 c-20 -20 -35 -25 -72 -25 -28 0
-66 -9 -90 -20 -45 -22 -138 -99 -130 -107 3 -3 -29 -43 -70 -89 -40 -46 -74
-86 -74 -89 0 -3 12 -4 28 -3 26 3 27 1 30 -49 l3 -53 43 0 c105 0 211 -69
264 -170 32 -61 34 -70 30 -140 -5 -85 -22 -126 -78 -185 -29 -31 -39 -51 -44
-89 -10 -77 -61 -116 -152 -116 -18 0 -38 -8 -49 -20 -24 -27 -70 -26 -98 3
-12 12 -34 30 -49 40 -24 15 -28 24 -28 67 0 28 -3 50 -6 50 -3 0 -35 -26 -70
-59 -64 -59 -182 -126 -241 -137 -25 -5 -33 -2 -43 16 -16 30 2 64 42 81 24
10 46 33 85 88 2 3 16 -8 31 -22 16 -15 33 -27 40 -27 17 0 92 70 92 85 0 20
-25 25 -129 25 l-98 0 -28 -41 c-35 -50 -52 -59 -107 -58 l-43 2 47 6 c85 12
118 65 118 188 0 61 -5 89 -24 130 -24 50 -99 135 -160 181 -27 21 -29 28 -38
124 -4 56 -13 118 -18 137 -23 84 -29 64 -27 -94 1 -171 -1 -179 -55 -245 -34
-42 -35 -50 -2 -89 20 -25 33 -31 62 -30 32 0 34 1 15 9 -27 11 -29 37 -7 88
9 20 20 54 23 74 l6 38 57 -45 c84 -67 114 -118 122 -210 9 -101 1 -136 -40
-176 l-35 -34 -120 0 c-152 0 -149 -3 -149 149 0 61 -4 117 -9 125 -7 11 -17
11 -61 -4 -71 -24 -179 -18 -244 14 -71 35 -170 132 -203 199 -24 50 -28 69
-28 147 0 78 4 97 28 147 30 62 83 115 149 150 38 20 61 23 184 26 97 3 149 0
164 -8 18 -10 21 -9 18 1 -8 25 -90 42 -208 43 -111 1 -118 0 -182 -32 -73
-36 -124 -87 -160 -161 -19 -38 -23 -62 -23 -146 0 -89 3 -105 27 -150 33 -63
186 -211 254 -248 31 -16 76 -30 112 -33 l60 -7 6 -65 c4 -35 5 -66 3 -68 -2
-2 -32 -6 -68 -9 -127 -9 -175 -22 -229 -59 -40 -27 -62 -36 -95 -36 -82 0
-155 76 -155 161 0 59 27 95 99 129 28 13 51 28 51 34 -1 6 -28 40 -62 76 -45
47 -56 55 -42 31 10 -18 36 -48 57 -66 20 -17 37 -35 37 -38 0 -4 -19 -16 -42
-28 -24 -12 -55 -33 -70 -47 l-27 -25 2 142 c1 77 1 141 1 141 -1 0 -21 -7
-44 -15 -55 -19 -70 -14 -101 35 -13 22 -28 40 -32 40 -13 0 -36 64 -27 75 4
6 10 55 12 110 3 55 8 108 12 117 6 14 -2 20 -45 32 -29 9 -54 16 -56 16 -1 0
-10 -26 -19 -57 -16 -53 -15 -57 1 -69 15 -11 16 -16 5 -29 -23 -27 -7 -111
29 -153 17 -20 50 -64 73 -97 23 -32 43 -54 46 -47 2 7 9 12 15 12 8 0 7 -4
-1 -12 -18 -18 -16 -22 33 -73 66 -71 85 -116 85 -209 0 -89 12 -120 67 -164
51 -41 37 -56 -47 -50 -87 6 -96 21 -102 158 -4 93 -8 113 -31 153 -36 61 -90
87 -180 87 l-67 0 0 -145 0 -146 58 3 57 3 0 84 c0 59 -4 86 -12 88 -10 4 -13
-13 -13 -61 0 -64 -1 -66 -25 -66 -24 0 -25 2 -25 76 0 104 7 114 78 114 109
0 141 -39 149 -183 4 -65 2 -96 -6 -101 -16 -10 -15 -197 2 -218 6 -9 22 -19
35 -23 17 -5 22 -2 22 12 0 10 3 36 7 58 l6 40 -21 -19 c-20 -17 -22 -18 -22
-2 0 27 19 56 36 56 13 0 15 -13 12 -74 l-3 -74 36 19 c42 21 86 70 95 104 5
20 29 34 57 35 32 0 -26 -104 -91 -162 -80 -72 -209 -78 -282 -13 -19 17 -33
21 -62 18 -30 -4 -42 0 -61 19 l-25 25 -37 -19 c-28 -15 -40 -17 -51 -7 -18
15 -18 46 0 56 8 4 16 19 18 33 2 17 10 26 26 28 32 5 28 34 -9 61 l-31 23 4
205 c4 242 0 233 115 233 40 0 73 4 73 8 0 19 -61 101 -91 123 -30 21 -47 24
-136 27 -70 3 -103 0 -103 -7 0 -13 -40 -14 -60 -1 -9 6 -15 25 -15 47 0 34
-3 38 -28 41 -47 6 -46 -24 4 -69 l44 -39 87 6 87 7 7 -27 c3 -14 3 -42 0 -61
l-7 -34 -91 -3 -91 -3 -12 -40 c-9 -34 -15 -40 -35 -37 -14 1 -29 7 -34 12 -5
5 -10 91 -10 192 -2 191 -8 229 -49 288 -35 53 -68 72 -122 72 -56 0 -92 -22
-118 -73 -16 -31 -17 -64 -15 -345 3 -273 1 -311 -12 -306 -13 5 -13 3 -1 -11
9 -11 21 -15 33 -11 12 3 27 -1 38 -11 16 -14 30 -16 75 -10 54 6 56 6 46 -13
-15 -28 -32 -40 -72 -47 l-37 -7 -1 -67 -1 -67 29 -2 c33 -2 56 19 48 48 -7
29 12 36 29 11 28 -40 74 -20 71 30 -2 21 -6 25 -27 21 -23 -5 -21 -2 15 32
22 20 51 41 64 47 16 6 22 15 18 29 -4 17 16 36 35 32 12 -3 35 49 49 111 15
68 31 82 106 92 l53 7 0 -89 c0 -105 -19 -192 -59 -271 -32 -63 -75 -118 -250
-320 l-115 -131 -13 37 c-7 20 -22 45 -34 55 -35 28 -42 19 -8 -11 45 -40 52
-106 15 -149 -58 -69 -156 -63 -187 12 -6 15 -8 16 -8 4 -2 -41 114 -156 187
-186 l52 -22 -17 23 c-10 13 -21 22 -25 20 -4 -2 -10 1 -14 7 -4 8 -3 9 4 5 7
-4 12 -1 12 8 0 8 -10 17 -22 19 -20 4 -20 4 4 6 15 0 38 -4 52 -10 23 -11 29
-7 84 50 32 34 71 70 86 80 26 17 30 18 55 3 35 -20 57 -11 66 26 3 16 17 40
31 52 13 13 24 29 24 35 0 6 22 -10 50 -37 72 -69 158 -110 245 -115 77 -5
125 8 125 33 0 11 -5 14 -16 10 -43 -16 -152 -18 -205 -3 -98 29 -209 123
-209 179 0 25 27 23 41 -5 29 -55 122 -138 153 -137 6 1 -3 9 -20 18 -39 22
-65 42 -83 65 -12 15 -11 20 4 38 19 20 19 19 29 -13 7 -22 23 -40 47 -52 34
-19 37 -19 92 -1 l58 18 27 -25 c58 -52 60 -53 74 -24 10 23 16 26 42 21 79
-16 155 -47 170 -70 23 -34 21 -38 -26 -60 -60 -29 -91 -78 -85 -133 5 -49 24
-73 86 -114 84 -53 164 -31 205 56 19 39 22 56 15 75 -6 13 -8 30 -5 38 8 19
50 16 77 -6 l23 -18 -29 -27 c-27 -26 -28 -27 -9 -41 10 -8 24 -15 30 -15 20
0 36 29 30 54 l-6 23 138 -5 c106 -3 142 -8 157 -21 13 -10 12 -7 -4 12 l-25
27 40 42 c26 27 32 38 19 33 -94 -35 -249 -46 -343 -24 -94 23 -299 132 -340
182 -11 13 -6 18 32 36 53 26 117 94 168 179 30 49 48 67 89 87 28 15 53 24
56 21 10 -10 -56 -66 -84 -72 -26 -5 -31 -13 -46 -71 -10 -37 -15 -68 -13 -71
15 -14 134 -32 216 -32 106 0 192 17 294 57 l69 27 -6 68 -6 68 48 0 49 0 4
-75 c4 -92 23 -118 87 -117 60 1 99 16 243 90 l126 65 46 -30 45 -30 -58 -55
c-83 -78 -137 -102 -236 -103 -54 -1 -102 -9 -147 -24 -72 -24 -86 -37 -128
-123 -13 -26 -48 -80 -78 -120 -68 -91 -64 -103 34 -103 56 0 75 -4 99 -23 17
-12 55 -27 86 -34 75 -15 168 7 261 63 68 41 69 41 90 23 12 -11 4 2 -17 27
l-40 47 -39 -35 c-85 -77 -201 -108 -299 -79 -58 17 -127 67 -127 92 0 20 14
17 36 -7 33 -37 93 -59 167 -59 37 0 66 4 65 8 -2 4 21 36 51 70 57 66 80 75
114 44 16 -14 15 -7 -8 37 -15 30 -34 73 -41 95 -16 45 -9 56 37 56 21 0 31
-10 52 -47 34 -63 65 -104 128 -170 65 -68 77 -62 15 9 -25 29 -46 61 -46 70
0 21 58 77 79 78 16 0 122 -111 115 -121 -2 -4 1 -11 7 -15 8 -5 9 -3 4 6 -6
10 -4 12 8 7 31 -12 116 -19 134 -12 10 4 29 8 43 9 22 1 25 5 22 36 -3 33 -2
34 12 15 22 -29 52 -8 49 34 -3 32 22 55 49 47 7 -2 25 -7 41 -10 15 -4 27
-12 27 -20 0 -7 7 -19 15 -26 12 -10 15 -9 15 5 0 12 5 15 18 10 37 -14 115
-25 141 -19 91 21 171 111 171 192 0 56 -48 154 -107 220 l-43 47 35 -54 c19
-29 35 -62 35 -72 0 -10 4 -19 9 -19 4 0 8 -22 7 -49 -3 -86 -75 -168 -169
-192 -62 -15 -137 0 -199 41 -49 33 -158 142 -158 159 0 24 23 8 83 -56 l63
-66 33 16 c17 9 40 14 49 11 9 -3 -1 5 -23 18 -97 57 -112 165 -36 252 25 28
87 56 125 56 24 0 34 4 31 13 -7 16 54 89 67 81 7 -4 8 -2 4 4 -4 7 6 20 27
32 77 45 123 157 114 276 -5 73 -29 125 -80 181 -23 26 -27 76 -7 113 13 24
13 23 25 -24 15 -60 41 -95 88 -121 l37 -20 0 -107 c0 -85 -3 -108 -14 -108
-7 0 -19 -6 -25 -14 -17 -21 18 -61 47 -52 16 5 23 20 32 64 28 142 41 171 84
201 23 16 61 48 85 71 39 39 42 45 36 78 -10 55 -34 90 -96 139 -38 30 -68 45
-95 48 l-39 5 42 -11 c84 -20 138 -109 114 -188 -29 -97 -160 -133 -240 -65
-58 48 -64 128 -16 199 14 20 20 33 14 29 -15 -9 -2 36 16 55 11 12 19 12 45
1 37 -15 115 -8 159 15 29 15 31 14 64 -15 46 -40 111 -42 156 -4 38 32 39 56
4 106 -26 39 -46 37 -36 -3 19 -71 -69 -117 -131 -68 -23 18 -26 28 -26 82
l-1 62 -37 -42 c-20 -22 -47 -46 -59 -52 -52 -26 -149 -2 -171 42 -17 33 -31
149 -21 174 10 26 -43 107 -124 191 -48 50 -51 55 -33 65 56 36 66 49 66 88 0
32 -7 48 -42 85 l-42 46 -1 88 c0 49 3 92 7 96 4 4 44 10 89 14 62 6 86 12 96
26 12 17 14 55 16 302 0 59 -12 88 -49 115 l-24 18 0 -180z m-114 -515 c57
-57 35 -126 -40 -126 -49 0 -58 17 -50 94 6 62 8 66 31 66 15 0 39 -14 59 -34z
m405 -645 c-35 -65 -180 -68 -232 -5 -9 12 -3 10 17 -5 62 -45 148 -37 198 18
23 25 32 21 17 -8z m-3354 -121 c67 -40 68 -45 71 -346 4 -351 7 -345 -147
-348 -107 -2 -101 -22 -101 324 0 293 0 298 23 331 40 60 97 74 154 39z m3007
-227 c90 -89 125 -202 92 -299 -22 -66 -75 -135 -132 -175 -38 -26 -193 -99
-210 -99 -2 0 -4 8 -4 18 0 12 20 26 65 46 36 15 65 31 65 34 0 3 -7 13 -15
22 -8 8 -21 32 -29 51 l-15 35 59 -28 c76 -36 92 -35 125 3 49 59 65 103 64
174 -1 84 -40 167 -106 225 -36 31 -41 40 -26 40 11 0 41 -21 67 -47z m26 33
c0 -3 -4 -8 -10 -11 -5 -3 -10 -1 -10 4 0 6 5 11 10 11 6 0 10 -2 10 -4z
m-314 -48 c-21 -17 -51 -49 -67 -71 -16 -22 -29 -35 -29 -28 0 7 -4 10 -9 7
-5 -3 -16 6 -26 20 l-17 26 36 -3 c28 -3 42 3 68 27 30 29 66 53 78 54 2 0
-13 -14 -34 -32z m-2529 -4 c3 -8 1 -20 -4 -25 -12 -12 -48 14 -39 29 10 17
36 15 43 -4z m2369 -56 c35 -29 63 -57 63 -61 2 -15 -34 12 -99 74 -75 72 -54
65 36 -13z m-46 -2 c7 -10 8 -16 2 -16 -6 0 -13 4 -17 10 -3 5 -12 7 -19 4 -8
-3 -17 -1 -21 5 -4 7 1 8 12 4 16 -6 17 -5 3 12 -14 17 -14 18 6 7 11 -6 26
-18 34 -26z m495 2 c28 -22 55 -73 55 -104 0 -15 -2 -16 -17 -2 -10 9 -28 21
-40 27 -22 11 -22 10 -13 -14 14 -37 12 -62 -7 -102 -22 -48 -66 -73 -126 -73
-52 0 -45 -5 -140 100 -12 14 -39 40 -61 58 l-38 33 26 40 c15 21 29 39 32 39
3 0 2 -5 -2 -11 -7 -12 3 -11 151 7 28 3 54 10 60 15 18 18 91 10 120 -13z
m-2833 -252 c15 -22 9 -56 -10 -56 -10 0 -24 -6 -31 -12 -11 -11 -13 -7 -7 21
3 18 6 42 6 52 0 13 5 17 18 12 9 -4 20 -11 24 -17z m3044 3 c10 -17 -13 -36
-27 -22 -12 12 -4 33 11 33 5 0 12 -5 16 -11z m-1706 -127 c0 -4 -22 -13 -50
-18 -58 -12 -68 -1 -12 14 48 13 62 14 62 4z m0 -172 c8 -19 30 -40 62 -57 41
-22 46 -28 31 -34 -39 -16 -69 -9 -98 21 -18 18 -51 37 -82 46 -90 26 -84 54
11 54 61 0 64 -1 76 -30z m-1479 -13 c-13 -13 -26 -3 -16 12 3 6 11 8 17 5 6
-4 6 -10 -1 -17z m309 -87 c32 -61 -10 -130 -78 -130 -64 0 -71 20 -28 83 20
29 36 60 36 69 0 15 4 15 30 6 17 -5 35 -18 40 -28z m563 -57 c-7 -2 -21 -2
-30 0 -10 3 -4 5 12 5 17 0 24 -2 18 -5z m1737 -145 c61 -101 -14 -238 -129
-238 -90 0 -161 68 -160 155 0 64 19 89 68 90 25 0 36 -4 30 -9 -5 -6 -9 -22
-9 -37 0 -28 31 -59 59 -59 25 0 51 32 51 62 0 18 5 28 15 28 28 0 19 -68 -14
-101 -37 -37 -73 -37 -123 -3 -41 29 -54 27 -43 -5 10 -33 74 -71 118 -71 31
0 46 7 73 34 37 37 44 77 25 143 -15 53 9 60 39 11z m-2391 12 c10 -5 21 -17
25 -25 4 -13 -1 -11 -24 5 -40 29 -40 42 -1 20z m2106 0 c8 -13 -15 -13 -35 0
-12 8 -11 10 7 10 12 0 25 -4 28 -10z m-55 -21 c0 -6 -15 -26 -34 -45 -25 -25
-43 -34 -67 -34 -40 0 -73 18 -50 27 7 3 37 18 65 33 54 30 86 37 86 19z
m-2060 -28 c-14 -28 -18 -29 -80 -21 l-55 6 40 7 c22 4 51 12 65 16 38 13 42
13 30 -8z m2274 10 c3 -4 -1 -17 -9 -27 -11 -15 -16 -16 -26 -7 -10 10 -9 15
1 28 14 17 26 19 34 6z m-2367 -98 c29 -22 38 -25 54 -15 21 13 22 12 13 -12
-8 -22 -36 -20 -67 4 -40 32 -63 25 -104 -30 -41 -56 -57 -60 -24 -6 20 32 75
86 87 86 3 0 21 -12 41 -27z m1823 -71 c0 -44 -46 -92 -88 -92 -33 0 -92 42
-92 66 0 20 14 17 35 -6 40 -44 121 -6 112 52 -4 28 12 44 25 24 4 -6 8 -26 8
-44z m290 34 c0 -16 -28 -42 -36 -33 -3 3 -3 15 1 26 7 23 35 29 35 7z m444
-25 c3 -5 -1 -14 -9 -21 -13 -10 -15 -9 -15 9 0 21 14 28 24 12z m-1665 -57
c31 -40 36 -87 15 -131 -38 -76 -123 -104 -189 -63 -45 28 -61 70 -46 120 6
22 17 42 23 46 7 4 8 3 4 -4 -4 -8 0 -12 12 -12 15 0 18 -6 14 -29 -6 -40 27
-71 73 -71 31 0 38 5 52 35 16 34 16 36 -5 64 -21 28 -21 29 -2 34 12 3 24 -1
30 -11 5 -10 10 -12 10 -7 0 6 -7 21 -16 33 -21 31 0 28 25 -4z"/>
<path d="M4026 2126 c-34 -33 -33 -61 2 -96 22 -21 35 -27 56 -23 19 4 35 -1
54 -18 l27 -24 -23 26 c-15 17 -20 29 -13 34 18 10 13 80 -6 98 -34 30 -70 31
-97 3z m74 -40 c0 -16 -21 -36 -37 -36 -17 0 -17 47 0 53 17 6 37 -3 37 -17z"/>
<path d="M4435 3940 c3 -5 8 -10 11 -10 2 0 4 5 4 10 0 6 -5 10 -11 10 -5 0
-7 -4 -4 -10z"/>
<path d="M3792 3915 c0 -16 2 -22 5 -12 2 9 2 23 0 30 -3 6 -5 -1 -5 -18z"/>
<path d="M4664 3918 c22 -6 57 -28 81 -52 35 -33 45 -52 54 -98 17 -81 6 -125
-43 -174 -52 -53 -109 -71 -175 -54 -63 15 -117 53 -140 97 -11 21 -20 33 -21
27 -1 -26 51 -83 119 -129 68 -47 77 -50 131 -49 78 2 147 37 177 90 29 50 39
116 25 163 -23 74 -164 193 -226 190 -12 -1 -5 -5 18 -11z"/>
<path d="M3880 3796 c0 -105 2 -126 15 -126 12 0 15 20 15 116 l0 115 130 -3
c72 -2 130 0 130 5 0 4 -55 7 -122 7 -68 0 -133 3 -145 6 -23 6 -23 6 -23
-120z"/>
<path d="M4509 3899 l-24 -20 30 17 c39 24 40 24 28 24 -6 0 -21 -9 -34 -21z"/>
<path d="M661 3868 c-17 -23 -31 -44 -31 -47 -7 -118 -6 -128 14 -137 13 -5
23 -22 26 -40 7 -45 100 -122 100 -83 0 7 9 9 23 5 34 -8 70 19 57 44 -5 10
-7 26 -4 34 5 12 0 16 -19 16 -27 0 -84 43 -136 102 l-32 37 46 42 c43 40 45
44 29 56 -28 21 -40 16 -73 -29z"/>
<path d="M2395 3872 c5 -17 1 -31 -17 -50 l-23 -27 25 21 c14 11 44 29 68 39
49 21 51 31 3 12 -29 -11 -34 -10 -48 8 -15 20 -15 19 -8 -3z"/>
<path d="M1100 3870 c-19 -5 -60 -10 -90 -11 -62 -2 -78 -8 -59 -20 13 -8 129
-4 197 7 28 4 31 8 22 20 -14 15 -19 16 -70 4z"/>
<path d="M2305 3830 c3 -5 8 -10 11 -10 2 0 4 5 4 10 0 6 -5 10 -11 10 -5 0
-7 -4 -4 -10z"/>
<path d="M3960 3750 c0 -57 4 -80 13 -80 27 0 36 18 39 78 2 34 4 62 6 62 1 0
14 -7 27 -16 35 -23 125 -11 125 17 0 17 -8 19 -105 19 l-105 0 0 -80z"/>
<path d="M4555 3805 c-32 -31 -34 -86 -5 -115 30 -30 36 -25 32 25 -3 26 1 52
8 60 15 18 63 20 91 4 19 -9 19 -9 10 10 -26 47 -97 56 -136 16z"/>
<path d="M534 3798 c-4 -7 -3 -8 5 -4 6 4 19 2 27 -5 12 -10 13 -9 8 5 -7 19
-30 21 -40 4z"/>
<path d="M1320 3790 c0 -5 5 -10 10 -10 6 0 10 5 10 10 0 6 -4 10 -10 10 -5 0
-10 -4 -10 -10z"/>
<path d="M2305 3790 c3 -5 10 -10 16 -10 5 0 9 5 9 10 0 6 -7 10 -16 10 -8 0
-12 -4 -9 -10z"/>
<path d="M2350 3705 c0 -49 3 -85 7 -82 7 7 4 159 -3 166 -2 2 -4 -35 -4 -84z"/>
<path d="M3000 3775 c-7 -8 -20 -15 -28 -15 -15 0 -15 -1 0 -16 12 -13 20 -14
37 -5 22 12 28 36 12 45 -5 3 -14 -1 -21 -9z"/>
<path d="M484 3738 l-19 -23 23 19 c12 11 22 21 22 23 0 8 -8 2 -26 -19z"/>
<path d="M2310 3750 c0 -5 5 -10 10 -10 6 0 10 5 10 10 0 6 -4 10 -10 10 -5 0
-10 -4 -10 -10z"/>
<path d="M4120 3718 c41 -45 50 -53 50 -45 0 2 -21 23 -47 47 l-48 45 45 -47z"/>
<path d="M2730 3725 c-17 -20 -3 -54 27 -66 36 -13 42 -12 55 16 9 21 8 28 -7
45 -21 23 -57 26 -75 5z"/>
<path d="M4412 3720 c0 -14 2 -19 5 -12 2 6 2 18 0 25 -3 6 -5 1 -5 -13z"/>
<path d="M1326 3705 c-8 -9 -13 -22 -9 -31 4 -12 8 -11 17 7 6 13 22 26 36 30
l25 7 -27 1 c-15 1 -33 -6 -42 -14z"/>
<path d="M479 3675 c36 -42 46 -72 36 -122 -13 -72 -101 -124 -176 -103 -55
15 -92 61 -100 123 l-6 52 -2 -46 c-1 -38 5 -56 32 -95 54 -79 132 -104 207
-66 96 48 106 168 23 260 -40 44 -53 41 -14 -3z"/>
<path d="M1721 3692 c7 -10 9 -27 6 -35 -5 -14 -32 -17 -189 -19 l-183 -3 -3
-37 c-2 -22 2 -41 11 -50 10 -8 13 -25 10 -49 -3 -20 -1 -39 4 -42 6 -4 10 9
9 31 l-1 37 175 6 c96 4 176 7 178 8 2 0 2 38 0 83 -2 57 -7 83 -16 86 -11 3
-11 0 -1 -16z m-3 -109 l-3 -28 -172 -3 -173 -2 0 30 0 30 176 0 175 0 -3 -27z"/>
<path d="M2003 3674 c-15 -24 -15 -29 -2 -53 18 -31 51 -38 85 -17 26 17 31
45 14 77 -17 30 -75 26 -97 -7z"/>
<path d="M3770 3690 c19 -13 30 -13 30 0 0 6 -10 10 -22 10 -19 0 -20 -2 -8
-10z"/>
<path d="M1790 3675 c0 -8 7 -15 16 -15 14 0 14 3 4 15 -7 8 -14 15 -16 15 -2
0 -4 -7 -4 -15z"/>
<path d="M321 3653 c-29 -27 -35 -43 -32 -91 1 -28 43 -72 68 -72 14 0 12 3
-7 13 -38 19 -38 60 -1 97 33 34 80 40 105 14 13 -12 16 -13 16 -2 0 8 -13 26
-28 41 -38 36 -82 36 -121 0z"/>
<path d="M4717 3665 c-4 -8 -21 -24 -39 -35 -18 -11 -27 -20 -21 -20 17 0 80
57 72 65 -4 3 -9 -1 -12 -10z"/>
<path d="M1028 3663 c6 -2 18 -2 25 0 6 3 1 5 -13 5 -14 0 -19 -2 -12 -5z"/>
<path d="M1093 3663 c9 -2 23 -2 30 0 6 3 -1 5 -18 5 -16 0 -22 -2 -12 -5z"/>
<path d="M3693 3663 c20 -2 54 -2 75 0 20 2 3 4 -38 4 -41 0 -58 -2 -37 -4z"/>
<path d="M245 3649 c-4 -6 -5 -12 -2 -15 2 -3 7 2 10 11 7 17 1 20 -8 4z"/>
<path d="M1165 3641 c55 -34 95 -100 95 -158 0 -43 -40 -114 -100 -175 -74
-77 -95 -77 -166 -4 -63 65 -84 104 -94 171 -7 50 -8 50 -9 9 -1 -54 36 -126
102 -195 60 -64 90 -74 145 -49 51 23 139 128 148 176 10 55 -2 114 -33 158
-28 40 -85 86 -107 86 -6 0 3 -8 19 -19z"/>
<path d="M3020 3591 c-6 -12 -10 -115 -10 -265 l0 -246 134 0 c81 0 137 -4
141 -10 12 -20 -6 -68 -27 -73 -42 -11 -289 5 -304 20 -11 11 -14 54 -14 207
0 232 -3 250 -44 278 l-31 21 29 -31 c28 -30 30 -37 30 -112 0 -64 -4 -83 -20
-101 -36 -40 -68 -49 -173 -49 -56 0 -103 -4 -106 -10 -3 -5 -1 -10 5 -10 11
0 64 -107 91 -182 14 -40 29 -47 48 -24 8 10 7 23 -5 51 -29 70 2 95 118 95
l49 0 -2 -65 c-2 -66 -2 -66 34 -91 23 -15 38 -33 38 -47 2 -35 -2 -110 -7
-129 -3 -11 3 -19 18 -23 63 -20 138 -118 138 -182 0 -21 5 -23 48 -23 l49 0
-12 48 c-13 49 -6 72 22 72 10 0 12 6 8 19 -7 24 27 49 79 58 32 5 36 3 36
-15 0 -13 -10 -24 -27 -31 -26 -10 -26 -10 7 -5 48 9 50 11 50 47 0 18 7 56
14 86 l15 53 -47 -7 c-71 -10 -120 -35 -201 -103 -95 -80 -114 -80 -52 -2 l20
25 -36 37 c-36 37 -37 38 -17 56 10 10 27 21 37 25 17 6 17 5 -2 -21 l-20 -29
31 -26 30 -27 57 34 c59 37 117 56 175 58 28 1 37 6 44 27 12 35 5 51 -24 51
-29 0 -64 33 -64 60 0 16 -7 20 -35 20 l-35 0 0 150 c0 139 2 152 21 171 12
12 29 19 40 16 10 -3 21 -1 24 4 11 17 -48 22 -76 6 -20 -11 -43 -14 -88 -10
-42 4 -61 2 -61 -6 0 -7 19 -11 48 -11 26 0 53 -5 60 -12 8 -8 12 -59 12 -165
l0 -153 -130 0 -130 0 0 189 c0 247 5 280 41 295 22 9 26 15 17 24 -18 18 -46
14 -58 -7z m362 -607 c36 -19 29 -27 -35 -43 -40 -10 -51 -9 -70 4 -16 11 -18
15 -5 15 9 0 26 9 39 20 29 24 32 24 71 4z m-309 -53 c-3 -10 -18 -34 -35 -52
l-29 -34 6 44 c7 56 11 61 40 61 18 0 22 -4 18 -19z"/>
<path d="M3439 3582 c6 -11 11 -45 11 -76 0 -50 -2 -55 -27 -65 l-28 -11 27 4
28 3 3 -171 c1 -98 3 -64 2 78 0 200 -3 250 -13 254 -11 3 -12 0 -3 -16z"/>
<path d="M3585 3590 c-3 -6 -17 -7 -30 -4 l-23 6 -4 -154 c-1 -84 -2 -207 0
-274 l4 -121 24 5 c25 5 25 5 21 101 -2 53 -6 107 -9 121 -4 14 -9 55 -13 93
l-7 67 44 0 c24 0 49 -5 56 -12 8 -8 10 -61 5 -192 -7 -211 -9 -216 -85 -216
-46 0 -49 -1 -42 -22 4 -12 23 -46 42 -75 38 -57 37 -80 -2 -44 -22 20 -24 21
-30 4 -4 -9 -9 -51 -13 -93 -6 -91 15 -195 54 -256 l27 -42 68 55 c37 30 93
65 123 78 30 12 52 25 48 28 -3 4 -51 7 -105 7 l-98 0 0 -42 c0 -91 -25 -114
-60 -56 -45 75 -38 202 15 270 31 38 33 44 19 59 -17 19 -10 37 41 107 15 21
26 54 30 90 10 87 2 82 125 82 l110 0 0 185 c0 102 -3 185 -7 185 -5 0 -7 -81
-5 -180 l3 -180 -110 0 -111 0 3 38 c1 20 6 43 10 50 5 6 5 17 2 22 -4 6 3 6
18 -1 20 -9 31 -7 65 15 60 37 75 67 76 140 1 91 -6 97 -118 94 l-91 -3 -3
-42 -3 -43 -45 0 -44 0 0 55 c0 52 1 55 24 55 29 0 39 12 30 34 -7 18 -20 21
-29 6z m228 -171 c34 -46 0 -94 -72 -101 -24 -2 -35 1 -37 12 -2 8 -6 27 -10
42 -4 18 -1 37 10 54 23 34 80 31 109 -7z"/>
<path d="M1044 3581 c-52 -22 -79 -94 -54 -142 13 -23 61 -49 92 -48 l23 0
-22 9 c-29 12 -30 48 -2 84 39 49 106 19 79 -36 -11 -23 -11 -23 5 -3 22 26
13 82 -17 112 -26 26 -73 37 -104 24z"/>
<path d="M457 3551 c-4 -17 -3 -21 5 -13 5 5 8 16 6 23 -3 8 -7 3 -11 -10z"/>
<path d="M643 3563 c-18 -6 -16 -33 1 -33 19 0 31 19 20 30 -5 4 -15 5 -21 3z"/>
<path d="M2618 3500 l4 -40 -74 0 c-60 0 -78 -4 -91 -18 -24 -26 -21 -32 13
-32 39 0 96 -53 104 -98 4 -26 0 -38 -22 -63 -23 -26 -36 -32 -71 -32 l-43 0
6 -36 c3 -20 6 -55 6 -78 0 -30 7 -50 25 -70 l25 -28 -10 28 c-24 69 1 137 59
161 64 25 81 71 81 221 0 69 -3 125 -8 125 -4 0 -6 -18 -4 -40z"/>
<path d="M1854 3506 c-6 -7 -14 -28 -18 -47 -5 -30 -2 -39 20 -60 l26 -24 -3
-167 c-2 -92 -1 -170 3 -173 11 -12 28 59 28 121 0 53 3 65 20 74 27 14 25 42
-4 69 -18 17 -25 37 -30 85 -8 84 -27 138 -42 122z"/>
<path d="M4423 3499 c10 -16 9 -21 -2 -28 -18 -12 -39 -4 -44 17 -4 15 -5 15
-6 1 -1 -22 28 -45 67 -54 37 -8 43 9 16 50 -20 30 -50 44 -31 14z"/>
<path d="M410 3500 c-9 -6 -10 -10 -3 -10 6 0 15 5 18 10 8 12 4 12 -15 0z"/>
<path d="M644 3478 c-4 -6 1 -17 11 -24 23 -17 26 -14 18 14 -6 24 -18 28 -29
10z"/>
<path d="M690 3465 c0 -28 21 -33 40 -10 15 18 5 35 -21 35 -14 0 -19 -7 -19
-25z"/>
<path d="M750 3470 c0 -13 5 -20 13 -17 6 2 12 10 12 17 0 7 -6 15 -12 18 -8
2 -13 -5 -13 -18z"/>
<path d="M2214 3450 c1 -29 2 -30 52 -30 38 0 53 -4 58 -16 3 -9 6 -99 6 -200
l0 -184 -31 0 c-20 0 -29 -4 -26 -12 7 -20 -23 -90 -52 -122 -33 -37 -105 -69
-133 -61 -12 4 -18 3 -15 -2 4 -6 -17 -21 -44 -34 -50 -23 -51 -23 -65 -4 -8
10 -14 35 -14 54 0 29 8 43 53 83 28 27 55 52 59 56 4 4 18 20 32 37 l24 29
36 -32 c43 -38 53 -39 86 -9 l25 22 -3 183 c-2 107 -7 182 -12 182 -6 0 -10
-38 -10 -85 l0 -85 -49 0 c-53 0 -61 8 -61 63 -1 18 -7 46 -15 62 -13 29 -13
26 -14 -47 l-1 -78 -35 0 c-19 0 -35 -3 -35 -7 0 -5 46 -7 103 -5 l104 3 -4
-83 c-6 -108 -6 -110 -45 -106 -32 3 -33 5 -36 50 -3 52 -19 63 -78 56 -28 -3
-29 -5 -32 -60 -3 -49 -6 -58 -22 -58 -34 0 -40 33 -40 224 l0 185 28 4 c15 2
5 4 -23 4 -27 1 -42 -1 -32 -4 15 -4 17 -22 17 -202 0 -222 -2 -231 -76 -266
-33 -15 -36 -20 -30 -48 8 -37 38 -102 65 -137 l20 -25 53 24 c29 12 78 31
108 40 87 28 116 47 163 109 66 85 69 87 100 54 24 -25 26 -31 16 -65 -14 -51
-55 -97 -87 -98 -21 -1 -22 -2 -7 -6 30 -8 85 27 106 69 11 21 24 36 29 33 13
-8 13 -65 -1 -104 -11 -30 -9 -35 21 -66 22 -23 46 -36 74 -41 22 -3 59 -13
81 -21 90 -34 101 -33 118 1 40 85 114 135 199 136 l46 0 4 76 c4 92 -7 104
-90 104 -52 0 -132 -30 -132 -49 0 -5 13 -40 29 -77 16 -38 28 -71 26 -72 -9
-9 -28 14 -56 70 l-31 60 -24 -36 c-14 -20 -29 -34 -35 -31 -10 7 1 31 32 76
18 26 18 27 -17 110 -19 46 -39 88 -44 93 -5 5 -21 4 -39 -3 -31 -13 -54 -51
-66 -109 -4 -21 -11 -30 -18 -25 -7 4 43 -51 111 -121 108 -114 139 -156 114
-156 -4 0 -61 52 -125 115 -101 98 -123 115 -150 115 -40 0 -72 21 -95 63 -15
28 -17 58 -14 250 l4 217 -70 0 -69 0 1 -30z m302 -574 c7 -14 8 -30 3 -38
-17 -27 -8 -51 34 -88 43 -39 45 -57 5 -47 -49 13 -61 31 -69 107 -5 40 -6 77
-3 82 9 14 19 9 30 -16z m64 -86 c8 -5 11 -12 8 -16 -4 -3 21 -27 55 -52 34
-25 56 -47 49 -50 -10 -3 -61 31 -138 94 -30 24 -8 45 26 24z"/>
<path d="M4185 3460 c-36 -40 12 -105 72 -98 39 4 43 45 8 87 -31 36 -54 39
-80 11z m65 -5 c22 -26 8 -50 -30 -50 -25 0 -36 5 -38 18 -5 23 15 47 38 47
10 0 23 -7 30 -15z"/>
<path d="M1467 3463 c-19 -18 2 -23 94 -23 86 0 107 -3 136 -21 52 -32 63 -64
63 -179 0 -99 -1 -102 -29 -131 -35 -34 -50 -36 -84 -9 -22 18 -25 25 -17 46
6 14 10 44 10 68 0 51 -44 117 -90 136 -39 16 -102 8 -136 -19 -34 -27 -42
-26 -47 2 -3 12 -4 -50 -3 -138 l1 -160 55 2 c30 1 84 4 118 5 l64 3 -37 32
c-29 25 -43 31 -65 27 -74 -15 -143 74 -120 157 14 51 50 80 104 86 43 5 48 3
86 -35 33 -33 40 -46 40 -79 0 -25 -8 -50 -19 -65 l-20 -25 67 -49 c132 -97
140 -123 62 -202 -43 -44 -50 -56 -50 -91 0 -69 21 -141 49 -173 l27 -31 45
64 c25 35 49 64 54 64 6 0 29 -21 52 -46 l43 -46 -30 -40 -30 -41 26 -6 c15
-4 27 -6 28 -4 2 2 13 20 25 40 51 85 178 176 286 205 l50 13 -44 -4 c-58 -6
-154 -55 -218 -111 -28 -25 -56 -45 -63 -45 -22 0 -107 96 -135 154 -36 74
-48 194 -32 313 15 111 -1 282 -30 321 -11 14 -31 30 -44 33 -32 9 -234 11
-242 2z"/>
<path d="M2702 3383 l3 -78 45 -2 c34 -1 39 0 20 6 -20 6 -24 13 -22 37 2 16
10 35 19 42 37 27 89 5 78 -34 -4 -13 -2 -12 6 3 9 17 9 29 0 51 -15 36 -48
52 -107 52 l-45 0 3 -77z"/>
<path d="M4759 3431 c34 -9 48 -35 32 -55 -18 -21 -57 -20 -70 2 -6 9 -11 12
-11 6 0 -13 59 -69 81 -77 22 -7 59 19 59 42 0 24 -71 91 -95 90 -16 -1 -15
-2 4 -8z"/>
<path d="M2040 3376 c0 -30 5 -58 11 -62 8 -4 10 11 7 50 -2 43 0 56 12 60 8
2 5 4 -7 5 -21 1 -23 -3 -23 -53z"/>
<path d="M517 3383 c-13 -12 -7 -23 13 -23 11 0 20 7 20 15 0 15 -21 21 -33 8z"/>
<path d="M4443 3383 c15 -2 37 -2 50 0 12 2 0 4 -28 4 -27 0 -38 -2 -22 -4z"/>
<path d="M613 3373 c26 -2 68 -2 95 0 26 2 4 3 -48 3 -52 0 -74 -1 -47 -3z"/>
<path d="M4555 3360 c122 -63 175 -182 125 -280 -23 -45 -47 -62 -71 -49 -12
6 -22 3 -34 -11 -62 -69 -229 -36 -286 56 -13 21 -25 62 -29 98 -7 60 -7 60
-9 13 -2 -84 37 -147 140 -222 31 -23 59 -35 86 -37 23 -2 39 -6 37 -9 -2 -3
7 -11 20 -17 39 -17 78 -77 84 -127 5 -51 17 -64 49 -56 22 6 22 7 5 41 -9 19
-44 62 -77 96 l-60 61 72 27 c96 36 143 86 143 152 0 73 -20 122 -73 180 -50
55 -95 87 -137 98 -15 4 -8 -2 15 -14z"/>
<path d="M4304 3318 l-19 -23 23 19 c21 18 27 26 19 26 -2 0 -12 -10 -23 -22z"/>
<path d="M392 3307 c-31 -33 -30 -90 3 -122 13 -14 30 -25 37 -25 7 0 2 7 -10
16 -32 22 -30 76 4 103 73 58 145 -28 79 -94 -13 -14 -20 -25 -15 -25 21 0 50
45 50 78 0 75 -99 121 -148 69z"/>
<path d="M322 3285 c0 -16 2 -22 5 -12 2 9 2 23 0 30 -3 6 -5 -1 -5 -18z"/>
<path d="M672 3298 c-16 -16 -15 -43 3 -58 12 -10 20 -9 40 4 14 9 25 22 25
29 0 18 -21 37 -40 37 -9 0 -21 -5 -28 -12z"/>
<path d="M564 3292 c5 -7 11 -33 14 -57 5 -32 10 -42 20 -37 15 10 -1 68 -26
92 -8 9 -12 10 -8 2z"/>
<path d="M4394 3256 c-28 -28 -34 -42 -34 -76 0 -34 6 -48 34 -76 28 -28 42
-34 75 -34 120 0 157 137 55 200 -49 31 -90 26 -130 -14z"/>
<path d="M3570 3266 c0 -3 9 -10 20 -16 11 -6 20 -8 20 -6 0 3 -9 10 -20 16
-11 6 -20 8 -20 6z"/>
<path d="M321 3223 c-1 -41 47 -99 106 -125 l43 -19 36 25 37 25 -56 -6 c-90
-9 -149 28 -160 102 l-4 30 -2 -32z"/>
<path d="M927 2931 c-4 -167 -7 -367 -7 -443 0 -134 -1 -138 -19 -128 -29 15
-59 12 -79 -7 -9 -10 -30 -19 -45 -21 -22 -3 -26 0 -21 15 5 17 5 17 -8 1 -11
-13 -29 -16 -81 -15 -37 1 -67 -1 -67 -6 0 -9 -2 -8 97 -32 39 -9 77 -14 83
-10 6 4 17 -1 25 -11 12 -17 13 -16 8 9 -12 62 53 101 97 57 40 -40 16 -94
-45 -103 -16 -2 3 -5 43 -6 39 0 72 2 72 6 0 3 -8 15 -17 26 -15 16 -18 38
-17 141 0 66 7 192 14 278 12 142 12 163 -2 208 -15 48 -15 49 2 40 10 -6 21
-10 24 -10 3 0 6 38 6 85 0 65 -4 92 -17 112 -10 15 -23 47 -28 72 -9 37 -12
-12 -18 -258z"/>
<path d="M795 3208 c-11 -6 -77 -51 -147 -100 -123 -86 -128 -91 -128 -124 l0
-36 38 23 c20 13 62 41 91 63 51 36 61 40 133 44 l78 5 0 58 c0 47 -4 60 -19
69 -24 12 -21 12 -46 -2z"/>
<path d="M1195 3190 c-92 -8 -106 -13 -124 -42 l-13 -21 27 21 c36 29 67 28
104 -4 26 -21 31 -33 31 -69 0 -35 -5 -48 -26 -64 -59 -46 -123 -15 -135 65
l-6 49 -2 -46 c-2 -64 32 -107 104 -136 29 -11 27 -12 -26 -12 l-56 -1 -7 -41
c-4 -26 -2 -46 5 -55 7 -8 50 -35 96 -60 62 -34 87 -44 96 -35 17 17 28 112
33 294 4 134 3 167 -8 165 -7 0 -49 -4 -93 -8z m85 -228 c0 -11 -46 -32 -68
-31 -12 0 39 30 66 38 1 1 2 -3 2 -7z m-80 -130 c0 -48 -3 -63 -11 -55 -13 13
-24 95 -15 118 13 34 26 1 26 -63z"/>
<path d="M4780 3176 c0 -2 9 -6 20 -9 11 -3 18 -1 14 4 -5 9 -34 13 -34 5z"/>
<path d="M4770 3142 c0 -6 9 -16 19 -21 14 -8 22 -7 31 4 16 19 5 32 -13 17
-10 -9 -17 -8 -25 0 -9 9 -12 9 -12 0z"/>
<path d="M4797 3064 c-32 -35 -55 -64 -50 -64 12 0 105 73 117 92 7 11 7 21 1
27 -6 6 -31 -14 -68 -55z"/>
<path d="M220 3051 c-13 -24 -4 -48 23 -63 17 -9 24 -7 39 12 24 29 12 47 -13
18 -16 -20 -20 -21 -29 -8 -5 8 -10 23 -10 33 0 14 5 16 26 11 19 -5 25 -4 20
5 -11 18 -44 13 -56 -8z"/>
<path d="M375 3050 c-3 -6 1 -7 9 -4 18 7 21 14 7 14 -6 0 -13 -4 -16 -10z"/>
<path d="M3789 3035 c-15 -8 -32 -28 -38 -45 -17 -51 11 -97 74 -117 l30 -10
-49 -18 c-42 -16 -54 -17 -93 -6 -51 13 -71 7 -29 -9 65 -24 139 -4 202 55 26
25 34 40 34 68 0 69 -73 115 -131 82z m111 -113 c0 -14 -39 -46 -47 -39 -3 4
2 16 12 27 19 21 35 26 35 12z"/>
<path d="M361 3019 c-2 -31 62 -66 89 -49 23 14 0 29 -35 23 -30 -5 -36 -2
-44 18 -6 15 -10 18 -10 8z"/>
<path d="M732 3018 c-13 -13 -16 -41 -6 -51 3 -3 17 -1 30 5 17 8 31 7 54 -2
51 -21 59 -50 57 -198 -1 -73 1 -132 6 -132 4 0 7 -20 7 -45 l0 -45 -201 0
c-181 0 -200 -2 -189 -16 28 -33 57 -39 220 -44 l165 -5 0 -30 0 -30 -110 -6
-110 -5 112 -2 c112 -2 113 -2 119 22 3 14 4 128 2 254 -3 209 -5 232 -22 251
-11 12 -16 24 -12 28 4 4 11 1 16 -7 6 -8 10 -10 10 -5 -1 14 -21 38 -50 58
-28 20 -81 22 -98 5z"/>
<path d="M1620 3007 c0 -24 -28 -56 -67 -76 -12 -6 -58 -11 -102 -11 -72 0
-81 -2 -81 -18 0 -17 9 -18 113 -14 119 5 156 16 182 56 18 28 12 49 -21 71
-23 15 -24 15 -24 -8z"/>
<path d="M652 2948 c-8 -8 -12 -58 -12 -160 l0 -148 45 0 45 0 -1 142 c0 78
-5 150 -10 160 -11 21 -49 24 -67 6z"/>
<path d="M4646 2931 c-4 -5 3 -7 14 -4 23 6 26 13 6 13 -8 0 -17 -4 -20 -9z"/>
<path d="M760 2911 c-5 -11 -10 -76 -10 -145 l0 -126 28 0 27 0 3 107 c1 70 7
114 16 128 10 14 11 27 4 38 -12 23 -55 22 -68 -2z"/>
<path d="M4692 2909 c3 -20 -1 -24 -25 -24 l-27 1 20 -20 c16 -16 24 -18 38
-10 23 15 27 48 7 64 -13 11 -15 9 -13 -11z"/>
<path d="M526 2895 c-18 -18 -20 -57 -10 -178 l7 -77 38 0 39 0 0 75 c0 64 -3
76 -20 85 -26 14 -26 36 1 50 29 16 22 54 -12 58 -15 2 -34 -4 -43 -13z"/>
<path d="M4798 2883 c7 -3 16 -2 19 1 4 3 -2 6 -13 5 -11 0 -14 -3 -6 -6z"/>
<path d="M4843 2864 c21 -26 22 -43 1 -72 -22 -32 -74 -27 -91 8 -9 17 -13 20
-13 8 0 -24 64 -88 88 -88 12 0 33 11 49 24 l27 24 -18 40 c-10 23 -28 49 -40
59 -21 18 -21 18 -3 -3z"/>
<path d="M4395 2856 c-43 -19 -66 -49 -71 -93 -5 -41 10 -79 38 -97 22 -13 28
-6 34 39 5 40 20 76 38 87 6 4 28 8 48 8 30 0 41 -6 55 -26 16 -26 16 -27 -6
-46 -13 -10 -21 -21 -17 -25 3 -3 15 2 25 11 11 10 24 15 29 12 20 -12 19 22
-1 59 -40 70 -110 100 -172 71z"/>
<path d="M4746 2855 c-9 -26 -7 -32 5 -12 6 10 9 21 6 23 -2 3 -7 -2 -11 -11z"/>
<path d="M1372 2824 c-35 -25 -26 -33 32 -27 l53 6 78 -74 78 -74 -6 40 c-4
22 -7 56 -7 75 0 34 -2 36 -58 53 -70 21 -140 22 -170 1z"/>
<path d="M276 2808 c-23 -32 -20 -65 9 -93 37 -38 80 -33 104 12 17 33 13 57
-12 81 -31 29 -81 29 -101 0z"/>
<path d="M1350 2710 c0 -32 8 -51 41 -92 57 -73 96 -154 119 -249 10 -45 22
-84 25 -87 13 -13 12 8 -5 72 -17 67 -17 69 2 74 11 2 15 8 10 11 -5 3 -23 35
-40 71 -17 36 -52 89 -77 118 -53 59 -45 71 11 15 76 -78 121 -164 144 -270 6
-27 12 -58 15 -70 3 -13 11 -23 18 -23 10 0 12 21 9 88 -4 75 -1 96 17 138 28
62 19 82 -62 131 -32 19 -79 53 -103 74 -36 31 -53 39 -85 39 -39 0 -39 0 -39
-40z"/>
<path d="M2218 2731 c-47 -16 -49 -20 -21 -62 23 -35 28 -38 42 -26 14 13 113
42 165 49 18 3 16 5 -9 22 -32 21 -134 31 -177 17z"/>
<path d="M2850 2704 c-61 -52 -77 -122 -40 -181 27 -45 62 -65 114 -65 117 0
185 128 115 216 -48 61 -135 75 -189 30z"/>
<path d="M3298 2723 c7 -3 16 -2 19 1 4 3 -2 6 -13 5 -11 0 -14 -3 -6 -6z"/>
<path d="M3462 2719 c-13 -5 -64 -16 -113 -25 -73 -14 -89 -20 -85 -33 3 -9 8
-28 11 -42 6 -22 14 -27 51 -33 68 -9 83 -22 119 -99 36 -78 65 -106 85 -82
10 12 5 23 -23 56 -39 45 -91 173 -85 210 2 16 12 26 36 33 17 5 32 13 32 17
0 5 -1 9 -2 8 -2 0 -13 -4 -26 -10z m-52 -63 c0 -46 -15 -54 -29 -14 -9 24 -8
34 1 40 23 14 28 9 28 -26z"/>
<path d="M4422 2713 c-12 -21 13 -63 37 -63 40 0 56 51 22 70 -28 15 -49 12
-59 -7z"/>
<path d="M2087 2670 c-54 -34 -109 -105 -105 -135 2 -15 17 -25 57 -37 30 -10
57 -16 59 -13 3 2 -3 7 -12 11 -28 11 -18 34 40 90 l55 54 -18 30 c-9 17 -20
30 -23 30 -3 0 -27 -13 -53 -30z"/>
<path d="M1113 2638 c-18 -6 -33 -17 -33 -24 0 -8 -4 -14 -9 -14 -14 0 -65
-49 -59 -56 3 -3 29 15 57 40 43 38 58 46 92 46 22 0 57 -9 77 -19 76 -39 171
-156 212 -262 23 -58 40 -83 40 -58 0 8 -17 51 -39 95 -91 187 -228 289 -338
252z"/>
<path d="M2159 2573 l-34 -38 38 34 c34 33 42 41 34 41 -2 0 -19 -17 -38 -37z"/>
<path d="M3121 2496 c-16 -30 -40 -61 -53 -70 l-22 -16 21 -22 c12 -13 46 -58
76 -101 44 -61 57 -73 62 -59 11 36 78 92 122 104 l44 11 -7 58 c-8 71 9 85
59 49 l31 -23 -23 39 c-46 78 -60 84 -176 84 l-103 0 -31 -54z m174 -43 c5
-25 1 -40 -16 -64 -19 -27 -20 -34 -8 -43 12 -9 7 -18 -28 -54 l-43 -42 -6 25
c-6 25 29 140 64 209 16 33 24 26 37 -31z"/>
<path d="M348 2516 c27 -36 28 -66 2 -99 -26 -33 -63 -41 -100 -22 -17 9 -30
13 -30 10 0 -7 91 -65 101 -65 4 0 21 12 38 26 24 20 31 34 31 60 0 39 -20 83
-47 105 -12 10 -11 5 5 -15z"/>
<path d="M1700 2509 c-32 -58 -31 -240 1 -260 24 -15 27 -10 18 29 -13 54 -11
130 4 190 8 28 12 54 9 57 -10 10 -21 5 -32 -16z"/>
<path d="M2585 2510 c-131 -7 -176 -22 -227 -77 -53 -56 -68 -106 -68 -236 0
-140 8 -161 79 -206 42 -27 61 -33 133 -37 142 -10 263 21 287 72 7 15 11 87
11 182 1 117 4 163 15 182 17 29 19 44 6 35 -10 -6 -53 47 -64 78 -4 10 -15
16 -29 15 -13 0 -77 -4 -143 -8z m93 -34 c15 -8 41 -28 57 -46 l30 -31 0 -169
c0 -187 -3 -197 -72 -226 -45 -19 -284 -19 -321 0 -62 32 -67 46 -67 190 0
115 3 136 22 171 32 60 85 106 140 121 57 16 171 11 211 -10z"/>
<path d="M2486 2400 c-64 -20 -106 -83 -106 -158 0 -83 73 -162 150 -162 49 0
122 47 143 93 59 123 -60 266 -187 227z"/>
<path d="M2709 2094 c-38 -41 -58 -47 -164 -54 l-100 -7 90 -1 c97 -2 152 15
189 57 28 31 14 36 -15 5z"/>
<path d="M261 2496 c-7 -8 -11 -25 -9 -38 2 -18 9 -23 32 -23 36 0 56 27 40
53 -14 22 -48 27 -63 8z"/>
<path d="M202 2460 c0 -14 2 -19 5 -12 2 6 2 18 0 25 -3 6 -5 1 -5 -13z"/>
<path d="M435 2460 c-18 -20 -15 -50 6 -50 8 0 7 5 -2 16 -11 14 -10 19 10 35
13 11 19 19 14 19 -6 0 -18 -9 -28 -20z"/>
<path d="M4702 2468 c-17 -17 -15 -55 4 -62 20 -8 64 19 64 37 0 18 -21 37
-40 37 -9 0 -21 -5 -28 -12z"/>
<path d="M1940 2432 c-5 -20 -10 -63 -10 -94 l0 -58 45 0 45 0 0 44 c0 25 4
47 9 50 5 3 7 -16 5 -42 l-3 -47 11 55 c18 93 18 91 -39 111 l-52 18 -11 -37z"/>
<path d="M457 2453 c-12 -11 -8 -23 9 -23 9 0 12 -5 8 -12 -5 -10 -4 -10 6 -1
7 6 10 19 7 27 -7 17 -19 21 -30 9z"/>
<path d="M513 2435 c0 -10 10 -15 30 -15 25 0 28 2 17 15 -7 8 -20 15 -30 15
-9 0 -17 -7 -17 -15z"/>
<path d="M4403 2425 c-29 -20 -37 -59 -19 -94 17 -32 34 -41 76 -41 58 0 80
80 35 125 -27 28 -61 32 -92 10z m70 -69 c9 -22 -18 -40 -33 -22 -6 9 -9 20
-5 26 9 15 32 12 38 -4z"/>
<path d="M4790 2428 c0 -26 -50 -60 -77 -53 -32 8 -29 -2 9 -25 28 -17 34 -17
58 -5 36 19 43 40 25 73 -10 18 -14 22 -15 10z"/>
<path d="M2978 2387 l-37 -10 4 -116 3 -115 54 -43 c29 -24 59 -46 65 -49 7
-3 33 6 58 20 62 37 57 17 -6 -22 l-50 -32 24 -32 c44 -59 60 -101 66 -178 l6
-75 68 -8 c78 -10 97 -1 97 43 0 55 -7 60 -82 60 -43 0 -67 4 -63 10 3 6 38
10 76 10 62 0 70 2 65 18 -2 9 -7 31 -11 48 l-6 31 74 -5 74 -4 6 47 c4 26 6
69 6 94 l-2 46 -10 -57 c-11 -62 -29 -78 -92 -78 -90 0 -175 80 -175 165 0 15
-18 47 -43 79 -24 29 -59 78 -78 109 -19 31 -38 56 -44 55 -5 0 -27 -5 -47
-11z m222 -402 c0 -96 -11 -107 -40 -42 -24 52 -25 85 -3 109 34 37 43 23 43
-67z m70 -35 c0 -4 -11 -15 -25 -24 l-25 -16 0 40 0 40 25 -16 c14 -9 25 -20
25 -24z m10 -40 c0 -5 -4 -10 -10 -10 -5 0 -10 5 -10 10 0 6 5 10 10 10 6 0
10 -4 10 -10z"/>
<path d="M458 2363 c-33 -37 -30 -91 6 -115 20 -14 27 -8 16 12 -8 15 -7 27 2
48 11 23 20 27 55 27 35 0 40 2 32 16 -17 33 -86 40 -111 12z"/>
<path d="M572 2249 c-30 -37 -85 -48 -126 -25 -26 15 -28 15 -16 1 8 -9 26
-23 40 -30 24 -12 30 -12 46 0 11 8 26 15 35 15 17 0 53 45 47 59 -2 4 -13 -5
-26 -20z"/>
<path d="M4700 2240 c-13 -14 -22 -25 -20 -26 3 0 -28 -28 -67 -63 l-73 -62 0
-93 c0 -78 -3 -95 -16 -100 -27 -10 -8 -19 24 -11 l30 6 4 89 c2 48 9 95 16
102 6 8 38 27 69 42 71 35 93 53 93 78 0 11 -8 30 -17 41 l-18 22 -25 -25z"/>
<path d="M3285 2236 c-53 -53 -37 -134 31 -162 102 -42 191 80 115 157 -39 39
-109 41 -146 5z"/>
<path d="M1968 2243 c-16 -3 -28 -11 -28 -19 0 -18 36 -90 48 -98 16 -10 73
18 67 32 -3 8 -8 31 -11 53 -7 41 -9 42 -76 32z"/>
<path d="M4837 2243 c-13 -12 -7 -44 9 -50 20 -7 45 22 37 43 -5 14 -35 19
-46 7z m33 -12 c0 -12 -20 -25 -27 -18 -7 7 6 27 18 27 5 0 9 -4 9 -9z"/>
<path d="M634 2189 c-27 -23 -61 -46 -76 -51 -26 -9 -39 -28 -19 -28 6 0 31
-18 56 -40 25 -22 52 -40 59 -40 25 0 66 41 66 65 0 35 -17 39 -23 7 -3 -16
-17 -34 -31 -41 -22 -12 -29 -12 -51 3 -28 19 -33 53 -9 63 25 9 49 -11 49
-42 -1 -24 0 -25 12 -9 16 21 16 31 3 39 -5 3 -10 15 -10 25 0 13 8 20 28 22
34 4 43 41 13 57 -17 9 -27 5 -67 -30z"/>
<path d="M243 2154 c-8 -20 21 -49 41 -41 17 7 22 42 8 51 -5 3 -8 -5 -8 -17
1 -13 -5 -22 -14 -22 -9 0 -15 9 -14 23 1 26 -4 28 -13 6z"/>
<path d="M745 2130 c-3 -5 -2 -10 4 -10 5 0 13 5 16 10 3 6 2 10 -4 10 -5 0
-13 -4 -16 -10z"/>
<path d="M917 2134 c-16 -16 -5 -24 34 -24 28 0 39 4 37 13 -5 13 -60 22 -71
11z"/>
<path d="M3547 2073 c-8 -7 -10 -347 -2 -355 3 -2 17 -3 32 -1 l28 5 -3 100
-4 101 37 -6 c73 -12 98 -67 49 -106 -25 -20 -26 -21 -5 -21 44 0 73 56 55
105 -9 22 -55 44 -98 47 -39 3 -46 21 -26 59 9 15 22 19 68 19 36 0 66 -6 78
-15 34 -25 39 -16 8 16 -16 17 -43 38 -61 45 -33 14 -144 19 -156 7z"/>
<path d="M919 2068 c-5 -10 -7 -278 -3 -299 4 -19 16 -31 45 -42 21 -8 39 -20
39 -26 0 -16 -50 -13 -85 4 l-30 15 30 -25 c22 -18 42 -25 73 -25 45 0 56 -16
27 -40 -13 -11 -13 -15 -3 -21 23 -15 28 -10 28 34 -1 38 -5 45 -46 76 l-45
34 7 56 c4 31 10 66 15 79 5 12 12 58 15 102 l7 80 -37 0 c-20 0 -37 -1 -37
-2z"/>
<path d="M1350 2050 c0 -5 5 -10 10 -10 6 0 10 5 10 10 0 6 -4 10 -10 10 -5 0
-10 -4 -10 -10z"/>
<path d="M457 2030 c40 -24 53 -48 53 -100 0 -84 -101 -133 -175 -84 -25 16
-42 51 -48 99 l-4 30 -2 -33 c0 -18 5 -45 13 -61 17 -32 90 -101 108 -101 9 0
9 -3 0 -12 -16 -16 -15 -33 1 -20 19 16 137 20 137 5 0 -9 -21 -13 -67 -14
-47 0 -62 -3 -48 -9 24 -10 81 -12 113 -4 26 7 32 54 7 54 -19 0 -19 17 0 50
25 44 19 98 -17 146 -31 39 -75 74 -95 74 -4 0 6 -9 24 -20z"/>
<path d="M4690 2035 c-6 -8 -9 -23 -5 -35 8 -26 43 -24 59 3 9 15 7 21 -8 33
-25 18 -31 18 -46 -1z"/>
<path d="M314 2018 l-19 -23 23 19 c12 11 22 21 22 23 0 8 -8 2 -26 -19z"/>
<path d="M530 2016 c0 -2 8 -10 18 -17 15 -13 16 -12 3 4 -13 16 -21 21 -21
13z"/>
<path d="M585 1970 c10 -11 20 -20 23 -20 3 0 -3 9 -13 20 -10 11 -20 20 -23
20 -3 0 3 -9 13 -20z"/>
<path d="M773 1954 c-8 -4 -4 -17 13 -41 28 -42 31 -63 7 -63 -28 0 -43 14
-53 46 -6 21 -9 -4 -9 -86 -1 -63 4 -133 11 -155 l11 -40 12 70 c7 39 15 78
20 88 8 20 46 32 75 24 19 -5 20 0 20 74 l0 79 -34 0 c-19 0 -40 2 -48 4 -7 3
-18 2 -25 0z"/>
<path d="M4770 1929 c0 -24 21 -79 30 -79 22 0 40 14 40 32 0 15 -5 18 -19 13
-15 -4 -24 1 -35 22 -9 17 -15 22 -16 12z"/>
<path d="M3390 1845 c0 -58 10 -67 41 -40 15 15 16 13 13 -30 -2 -25 -6 -65
-8 -90 -3 -33 0 -45 10 -45 11 0 14 26 14 130 l0 130 -35 0 -35 0 0 -55z"/>
<path d="M4700 1894 c0 -19 44 -76 70 -92 22 -14 22 -12 -6 19 -17 19 -38 45
-47 59 -10 13 -17 20 -17 14z"/>
<path d="M4624 1868 c-4 -5 0 -14 7 -19 20 -13 29 -11 29 5 0 18 -27 29 -36
14z"/>
<path d="M4502 1830 c6 -19 42 -25 65 -10 15 9 13 10 -13 6 -17 -3 -37 0 -44
7 -10 9 -12 9 -8 -3z"/>
<path d="M2195 1818 c-50 -29 -61 -90 -22 -126 29 -28 58 -28 88 -1 l24 21
-27 -16 c-32 -19 -54 -20 -63 -5 -9 13 23 49 44 49 9 0 29 8 44 19 27 17 27
19 11 35 -16 17 -57 36 -72 36 -4 0 -16 -6 -27 -12z"/>
<path d="M2827 1793 c-4 -3 -7 -26 -7 -50 l0 -44 53 3 c45 3 52 6 55 25 6 42
-74 94 -101 66z m83 -53 c0 -5 -17 -10 -37 -10 -28 0 -34 3 -23 10 20 13 60
13 60 0z"/>
<path d="M4505 1795 c25 -9 107 -12 94 -4 -8 5 -34 8 -59 8 -25 0 -40 -2 -35
-4z"/>
<path d="M4647 1753 c90 -81 83 -202 -16 -264 -76 -48 -172 -36 -229 29 -20
23 -22 24 -13 5 11 -22 92 -87 138 -111 12 -7 32 -12 45 -12 13 0 29 -5 35
-11 29 -29 117 31 152 105 41 84 16 167 -71 238 -55 44 -83 59 -41 21z"/>
<path d="M4299 1758 c7 -9 11 -29 9 -45 -2 -23 -8 -29 -35 -31 -23 -2 -35 3
-47 20 -13 18 -16 19 -16 6 0 -24 61 -68 94 -68 19 0 29 7 37 26 12 34 5 55
-28 85 -15 13 -22 16 -14 7z"/>
<path d="M4245 1730 c-4 -6 7 -10 25 -10 18 0 29 4 25 10 -3 6 -15 10 -25 10
-10 0 -22 -4 -25 -10z"/>
<path d="M4477 1700 c-43 -34 -43 -55 2 -100 45 -46 69 -50 105 -17 38 34 38
75 1 112 -30 31 -73 32 -108 5z m99 -75 c14 -35 -50 -62 -75 -31 -8 10 -8 16
1 23 31 25 67 28 74 8z"/>
<path d="M572 1609 c49 -45 74 -121 58 -178 -12 -47 -50 -96 -91 -116 -31 -17
-105 -20 -141 -6 -31 12 -78 59 -94 96 -7 17 -13 23 -14 14 0 -31 78 -126 123
-148 60 -29 143 -29 187 2 62 41 96 153 71 230 -12 34 -80 110 -118 130 -10 5
-1 -5 19 -24z"/>
<path d="M432 1583 c-6 -2 -10 -8 -7 -13 3 -4 -3 -7 -12 -6 -9 0 -24 -13 -34
-29 -15 -25 -17 -38 -9 -66 6 -20 19 -44 29 -53 18 -16 19 -15 38 20 10 20 35
46 56 58 32 18 39 19 47 6 6 -9 10 -10 10 -3 0 6 -11 25 -25 41 -13 16 -22 32
-18 36 4 3 -9 4 -28 1 -26 -4 -29 -3 -14 4 l20 10 -20 0 c-11 -1 -26 -3 -33
-6z"/>
<path d="M585 1482 c0 -51 -4 -65 -25 -87 -34 -37 -72 -55 -115 -55 -22 0 -34
-4 -30 -10 11 -17 88 -11 122 10 60 36 86 107 61 168 -13 33 -13 33 -13 -26z"/>
<path d="M4065 1505 c-28 -27 -32 -53 -12 -78 11 -15 16 -14 64 9 61 30 90 25
96 -14 3 -21 4 -18 6 11 3 82 -98 129 -154 72z"/>
<path d="M282 1470 c0 -14 2 -19 5 -12 2 6 2 18 0 25 -3 6 -5 1 -5 -13z"/>
<path d="M4793 1404 c-7 -18 17 -38 31 -24 11 11 1 40 -14 40 -6 0 -13 -7 -17
-16z"/>
<path d="M683 1343 c-7 -2 -13 -10 -13 -16 0 -8 4 -7 12 1 7 7 33 12 59 12 51
0 79 -23 79 -65 0 -11 5 -27 11 -35 15 -22 0 47 -17 83 -13 24 -19 27 -67 26
-28 0 -58 -3 -64 -6z"/>
<path d="M1023 1333 c9 -2 23 -2 30 0 6 3 -1 5 -18 5 -16 0 -22 -2 -12 -5z"/>
<path d="M4722 1328 c-15 -19 -3 -64 24 -93 27 -29 37 -31 58 -9 14 14 14 18
0 47 -32 63 -60 81 -82 55z m30 -30 c-15 -15 -26 -4 -18 18 5 13 9 15 18 6 9
-9 9 -15 0 -24z m17 -38 c-14 -9 -39 -2 -39 11 0 5 6 9 14 9 8 0 17 8 22 18 6
15 8 14 12 -7 2 -13 -2 -27 -9 -31z"/>
<path d="M845 1320 c3 -5 12 -10 20 -10 8 0 17 5 20 10 4 6 -5 10 -20 10 -15
0 -24 -4 -20 -10z"/>
<path d="M975 1320 c-3 -6 1 -7 9 -4 18 7 21 14 7 14 -6 0 -13 -4 -16 -10z"/>
<path d="M2825 1311 c-44 -20 -87 -34 -152 -51 -38 -10 -43 -14 -43 -40 0 -47
9 -60 44 -60 43 0 126 28 152 52 22 19 49 88 43 106 -3 7 -18 5 -44 -7z"/>
<path d="M702 1288 c2 -15 10 -23 23 -23 30 0 27 39 -3 43 -20 3 -23 0 -20
-20z"/>
<path d="M2152 1279 c2 -19 8 -23 26 -21 12 2 44 -3 70 -12 26 -8 63 -16 82
-18 27 -2 35 -8 40 -28 5 -20 15 -27 55 -37 28 -6 71 -12 97 -12 46 -1 47 0
54 33 10 58 8 59 -112 63 -71 2 -138 10 -189 24 -133 35 -127 35 -123 8z"/>
<path d="M925 1269 c-4 -6 -5 -12 -2 -15 2 -3 7 2 10 11 7 17 1 20 -8 4z"/>
<path d="M986 1264 c-35 -34 -5 -114 42 -114 34 0 62 29 62 64 0 57 -66 89
-104 50z m59 -34 c0 -8 -10 -16 -22 -18 -22 -3 -32 16 -16 32 12 11 38 2 38
-14z"/>
<path d="M912 1210 c0 -14 2 -19 5 -12 2 6 2 18 0 25 -3 6 -5 1 -5 -13z"/>
<path d="M404 1195 c8 -8 18 -15 22 -15 3 0 1 7 -6 15 -7 8 -17 15 -22 15 -5
0 -3 -7 6 -15z"/>
<path d="M356 1129 c-33 -64 -31 -89 2 -37 12 18 28 42 37 54 12 17 13 23 3
32 -10 8 -20 -4 -42 -49z"/>
<path d="M4638 1143 c-31 -39 -35 -50 -25 -62 10 -14 10 -14 -5 -3 -14 11 -28
10 -85 -7 -37 -11 -87 -23 -110 -27 -24 -4 -43 -12 -43 -18 0 -15 79 -76 99
-76 8 0 35 19 59 43 l44 42 -17 -34 c-9 -19 -60 -76 -113 -127 l-95 -94 23
-25 c26 -27 60 -33 60 -11 0 8 -4 18 -10 21 -5 3 -10 11 -10 18 0 6 15 -3 33
-20 38 -36 55 -33 106 18 l33 34 38 -44 c61 -71 82 -31 32 62 -27 50 -29 52
-43 33 -19 -24 -49 -15 -49 14 0 25 25 37 45 20 8 -7 15 -9 15 -5 0 4 11 0 25
-9 24 -16 25 -15 40 13 20 39 19 66 -2 98 -17 25 -17 25 5 19 17 -6 29 0 52
23 17 16 30 35 30 41 0 6 -21 33 -47 60 l-48 49 -37 -46z"/>
<path d="M545 1161 c-67 -17 -127 -65 -155 -121 -11 -23 -9 -22 12 4 17 20 29
27 39 21 11 -7 12 -6 2 7 -11 12 -10 18 5 30 42 38 133 65 173 53 15 -5 18
-12 14 -28 -6 -22 -6 -22 7 0 l14 23 40 -20 c22 -11 58 -38 79 -60 36 -37 38
-41 21 -53 -16 -12 -16 -18 -6 -56 39 -146 -115 -284 -257 -230 -23 9 -30 7
-44 -9 -15 -19 -16 -19 -39 -2 -21 16 -22 20 -10 35 7 9 20 13 29 10 11 -4 9
1 -6 17 -11 13 -28 37 -37 53 -12 21 -16 24 -13 9 3 -13 -3 -25 -15 -33 -11
-7 -21 -11 -22 -9 -2 2 -8 12 -14 23 -6 11 -12 15 -12 8 0 -18 73 -106 119
-142 47 -37 88 -51 151 -51 101 1 183 42 223 112 13 21 27 36 35 33 6 -3 20
-8 30 -11 16 -5 16 -5 0 6 -10 6 -18 18 -18 26 0 8 -5 12 -11 9 -7 -5 -10 3
-8 21 1 16 1 57 1 92 -2 63 -3 64 -59 124 -88 91 -185 131 -268 109z m-111
-395 c-6 -16 -8 -16 -25 0 -15 13 -16 20 -7 31 10 12 13 12 25 0 8 -7 11 -21
7 -31z"/>
<path d="M1302 1114 c-42 -29 -17 -104 35 -104 23 0 53 39 53 70 0 46 -46 64
-88 34z"/>
<path d="M1707 1069 c84 -26 142 -72 176 -139 24 -47 28 -64 24 -111 -6 -68
-35 -128 -82 -167 -36 -29 -94 -52 -132 -52 -42 0 -125 32 -158 61 -19 17 -35
26 -35 19 0 -18 68 -82 80 -75 5 3 10 1 10 -5 0 -7 7 -9 16 -6 8 3 12 2 9 -4
-3 -5 19 -17 49 -26 121 -38 231 24 270 152 16 52 17 68 6 117 -14 69 -74 164
-129 201 -38 27 -119 57 -150 55 -9 0 12 -9 46 -20z"/>
<path d="M946 1028 c21 -31 40 -55 42 -53 7 6 -35 70 -60 91 -13 11 -6 -3 18
-38z"/>
<path d="M1608 1073 c6 -2 18 -2 25 0 6 3 1 5 -13 5 -14 0 -19 -2 -12 -5z"/>
<path d="M4038 1070 c6 -8 12 -25 12 -38 0 -30 -53 -84 -74 -76 -24 9 -20 -26
7 -60 l24 -29 32 24 c69 51 76 113 18 165 -18 16 -26 22 -19 14z"/>
<path d="M4213 1067 c8 -21 -19 -48 -41 -40 -9 3 -3 -6 13 -21 34 -29 57 -33
75 -11 10 12 8 21 -7 46 -19 35 -51 54 -40 26z"/>
<path d="M1565 1060 c-3 -6 1 -7 9 -4 18 7 21 14 7 14 -6 0 -13 -4 -16 -10z"/>
<path d="M1508 1013 c-73 -75 -89 -173 -42 -264 14 -28 28 -48 31 -45 3 3 20
-5 37 -18 55 -42 94 -56 150 -56 98 0 166 49 192 136 23 79 -5 174 -67 230
-16 14 -13 6 11 -33 65 -104 29 -228 -80 -278 -34 -15 -34 -16 -5 -10 17 4 39
14 50 23 19 16 19 16 5 -2 -22 -28 -73 -46 -122 -45 l-43 2 40 7 c32 6 34 7
12 9 -34 1 -95 26 -121 49 -10 9 -27 35 -37 57 -54 118 23 245 161 266 l45 6
-48 2 c-144 4 -239 -150 -178 -286 15 -31 33 -49 73 -72 29 -17 47 -31 40 -31
-17 0 -72 28 -94 48 -10 8 -18 11 -18 6 -1 -5 -12 11 -25 36 -44 81 -29 180
38 256 47 54 44 58 -5 7z m318 -291 c-18 -16 -18 -16 -6 6 6 13 14 21 18 18 3
-4 -2 -14 -12 -24z"/>
<path d="M533 1020 c-17 -10 -37 -28 -42 -39 -16 -29 -13 -103 5 -129 16 -23
64 -52 86 -52 7 1 -2 7 -19 15 -22 9 -33 21 -33 35 0 30 25 75 56 99 40 32
113 27 115 -8 0 -9 3 -11 5 -4 9 20 -25 72 -56 88 -39 20 -79 19 -117 -5z"/>
<path d="M1406 1005 c-3 -9 -6 -22 -5 -28 0 -7 5 -1 10 12 5 13 8 26 5 28 -2
2 -6 -3 -10 -12z"/>
<path d="M366 995 c-3 -9 -6 -22 -5 -28 0 -7 5 -1 10 12 5 13 8 26 5 28 -2 2
-6 -3 -10 -12z"/>
<path d="M917 1003 c-4 -3 -7 -11 -7 -17 0 -6 5 -5 12 2 6 6 9 14 7 17 -3 3
-9 2 -12 -2z"/>
<path d="M3476 994 c-11 -7 -16 -17 -13 -21 4 -4 15 1 24 10 22 21 14 30 -11
11z"/>
<path d="M950 981 c0 -5 -6 -11 -14 -13 -13 -3 -13 -6 0 -28 13 -22 14 -22 9
-3 -4 14 0 25 11 31 11 6 13 11 5 16 -6 4 -11 3 -11 -3z"/>
<path d="M3506 953 c-17 -14 -37 -23 -47 -20 -28 8 -23 -6 13 -34 69 -52 68
-51 62 -34 -10 24 36 19 102 -12 53 -25 69 -28 154 -26 126 2 152 6 169 21 11
10 16 10 29 0 13 -11 14 -10 5 7 -6 11 -20 28 -30 37 -18 16 -22 16 -82 -2
-77 -24 -136 -25 -223 -2 -67 18 -105 42 -117 74 -5 14 -9 13 -35 -9z"/>
<path d="M1342 930 c0 -19 2 -27 5 -17 2 9 2 25 0 35 -3 9 -5 1 -5 -18z"/>
<path d="M1391 944 c0 -11 3 -14 6 -6 3 7 2 16 -1 19 -3 4 -6 -2 -5 -13z"/>
<path d="M1631 944 c-35 -25 -53 -75 -40 -113 6 -17 19 -36 29 -41 15 -8 19
-5 24 15 10 39 45 65 87 65 21 0 40 -6 42 -12 3 -7 6 0 6 15 2 66 -91 110
-148 71z"/>
<path d="M346 941 c-4 -7 -5 -15 -2 -18 9 -9 19 4 14 18 -4 11 -6 11 -12 0z"/>
<path d="M4110 930 c-14 -26 -5 -57 21 -71 43 -23 92 44 57 79 -20 20 -66 15
-78 -8z"/>
<path d="M2455 916 c-87 -41 -135 -112 -135 -199 0 -47 17 -107 30 -107 4 0 1
19 -7 43 -29 83 23 204 106 247 57 29 133 27 187 -5 56 -33 85 -81 91 -155 18
-196 -204 -303 -359 -172 -29 25 -30 25 -19 4 29 -54 181 -120 244 -107 62 14
126 54 154 97 25 36 28 51 28 117 -1 85 -13 117 -73 183 -70 78 -157 97 -247
54z"/>
<path d="M1384 864 c4 -71 37 -153 74 -186 l27 -23 -22 25 c-33 38 -63 113
-73 183 l-9 62 3 -61z"/>
<path d="M342 885 c0 -16 2 -22 5 -12 2 9 2 23 0 30 -3 6 -5 -1 -5 -18z"/>
<path d="M2465 884 c-71 -37 -105 -91 -105 -169 0 -41 22 -105 36 -105 3 0 2
5 -2 12 -4 6 10 -2 32 -20 21 -17 64 -38 94 -46 l55 -15 -50 -2 -50 -2 44 -4
c56 -5 92 10 135 57 35 38 56 92 56 140 0 32 -32 100 -56 122 -52 45 -136 60
-189 32z m25 -12 c0 -5 -13 -21 -30 -35 -42 -38 -63 -82 -55 -118 7 -31 50
-89 66 -89 14 0 11 34 -6 56 -18 23 -19 78 -2 92 6 6 25 12 42 14 19 2 31 9
33 21 3 15 -1 17 -22 11 -36 -9 -33 12 3 30 28 15 31 14 75 -20 54 -41 66 -61
66 -110 0 -31 -8 -44 -49 -85 -38 -37 -57 -49 -81 -49 -37 0 -90 21 -109 43
-7 9 -17 14 -22 11 -12 -7 -29 39 -29 78 0 45 34 109 72 136 35 23 48 27 48
14z"/>
<path d="M2560 805 c0 -14 5 -25 10 -25 6 0 15 -12 21 -26 7 -20 6 -32 -6 -50
-16 -25 -20 -54 -7 -54 21 0 52 48 52 82 0 27 -8 42 -35 67 l-35 31 0 -25z"/>
<path d="M2500 757 c-27 -14 -40 -47 -18 -47 8 0 23 6 34 14 17 13 21 12 37
-1 15 -15 17 -15 17 0 0 16 -26 47 -38 47 -4 0 -18 -6 -32 -13z"/>
<path d="M2513 688 c-6 -7 -12 -25 -15 -40 -4 -23 -1 -27 25 -32 40 -8 47 1
18 23 l-24 19 22 11 c12 7 19 16 16 22 -9 13 -31 11 -42 -3z"/>
<path d="M4298 869 l-33 -31 32 22 c18 11 35 25 38 30 12 19 -5 9 -37 -21z"/>
<path d="M1318 845 c-2 -19 0 -35 4 -35 4 0 8 16 8 35 0 19 -2 35 -4 35 -2 0
-6 -16 -8 -35z"/>
<path d="M3314 835 c-133 -67 -165 -233 -68 -360 14 -19 23 -35 19 -35 -16 0
73 -64 120 -86 152 -72 315 32 315 199 0 74 -15 109 -86 196 -67 81 -105 103
-189 109 -49 3 -69 -1 -111 -23z m211 -18 c54 -30 97 -102 103 -173 6 -70 -16
-128 -67 -178 -101 -99 -270 -68 -332 60 -34 72 -36 131 -6 196 52 116 187
158 302 95z"/>
<path d="M3344 761 c-67 -41 -97 -116 -74 -185 15 -45 79 -103 125 -112 73
-13 162 45 180 119 11 43 -3 94 -38 134 -55 62 -133 80 -193 44z m149 -43 c27
-14 50 -75 42 -114 -3 -20 -20 -45 -41 -63 -87 -77 -209 -2 -175 109 23 76
100 106 174 68z"/>
<path d="M3377 672 c-22 -24 -21 -65 1 -85 40 -36 102 -9 102 45 0 51 -69 78
-103 40z"/>
<path d="M1190 835 c-10 -12 -10 -15 4 -15 9 0 16 7 16 15 0 8 -2 15 -4 15 -2
0 -9 -7 -16 -15z"/>
<path d="M2895 820 c-10 -11 -15 -20 -11 -20 4 0 2 -9 -4 -21 -11 -20 -11 -20
14 -4 17 12 25 25 24 41 -3 29 -1 28 -23 4z"/>
<path d="M3977 816 c-14 -11 -15 -15 -4 -19 15 -5 37 10 37 25 0 12 -12 9 -33
-6z"/>
<path d="M1003 775 c-58 -35 -88 -98 -80 -168 9 -74 11 -83 25 -99 8 -10 8
-18 1 -25 -16 -16 72 -87 132 -106 72 -24 117 -21 177 9 60 30 98 85 108 155
5 38 0 55 -35 125 -39 77 -66 113 -76 102 -3 -3 4 -25 15 -49 36 -80 18 -183
-41 -235 -44 -38 -101 -66 -112 -55 -6 6 -22 11 -35 11 -32 0 -104 41 -98 56
2 6 -2 30 -10 52 -15 44 -10 93 11 128 30 47 139 69 224 44 32 -9 33 -9 18 13
-45 69 -146 88 -224 42z"/>
<path d="M1972 758 c-19 -19 -14 -45 10 -62 28 -20 57 -20 64 -1 9 24 -5 37
-22 20 -18 -17 -24 -18 -42 -6 -19 12 -10 46 11 45 9 -1 14 2 11 7 -7 12 -18
11 -32 -3z"/>
<path d="M2230 748 c0 -32 -30 -52 -68 -45 -25 5 -26 4 -7 -9 30 -22 63 -28
80 -14 17 14 20 57 5 80 -8 12 -10 9 -10 -12z"/>
<path d="M3018 732 c5 -40 -20 -59 -59 -45 -26 10 -28 9 -19 -7 5 -9 21 -25
36 -35 51 -33 97 15 67 72 -21 42 -30 47 -25 15z"/>
<path d="M3690 740 c0 -5 5 -10 11 -10 5 0 7 5 4 10 -3 6 -8 10 -11 10 -2 0
-4 -4 -4 -10z"/>
<path d="M3730 735 c0 -10 7 -15 18 -13 21 4 19 22 -2 26 -10 2 -16 -3 -16
-13z"/>
<path d="M3787 732 c7 -27 -21 -46 -46 -32 -17 8 -19 8 -15 -4 3 -8 18 -19 34
-24 23 -9 31 -7 46 9 14 16 15 24 6 44 -13 29 -32 34 -25 7z"/>
<path d="M1380 736 c0 -29 68 -109 113 -132 40 -21 33 -11 -14 20 -22 15 -53
48 -70 73 -16 26 -29 43 -29 39z"/>
<path d="M4107 700 c-6 -22 -57 -30 -57 -8 0 6 -3 8 -7 5 -3 -4 2 -16 13 -28
23 -26 69 -51 78 -42 3 4 6 -5 7 -18 0 -20 2 -18 12 11 9 26 10 38 1 45 -6 6
-18 20 -26 33 -15 22 -16 22 -21 2z"/>
<path d="M4273 713 c9 -2 23 -2 30 0 6 3 -1 5 -18 5 -16 0 -22 -2 -12 -5z"/>
<path d="M4358 689 c32 -16 49 -34 64 -64 29 -60 19 -107 -37 -162 -39 -40
-46 -43 -96 -43 -63 0 -104 23 -131 72 -9 18 -17 28 -18 22 0 -20 61 -104 103
-139 34 -29 48 -35 88 -35 56 0 95 13 127 42 19 19 22 31 22 104 0 76 -2 85
-32 130 -34 50 -89 94 -117 94 -9 0 4 -10 27 -21z"/>
<path d="M1062 673 c-52 -44 -24 -123 43 -123 19 0 36 4 39 9 3 4 -7 6 -22 4
l-27 -4 24 20 c25 22 57 29 45 9 -4 -7 -3 -8 4 -4 19 11 14 64 -8 86 -25 25
-71 26 -98 3z"/>
<path d="M2865 670 c-4 -7 -3 -16 3 -22 14 -14 45 -2 40 15 -6 16 -34 21 -43
7z"/>
<path d="M1953 643 c-13 -2 -23 -9 -23 -14 0 -5 1 -9 3 -9 1 1 25 7 52 15 38
10 43 13 20 13 -16 0 -40 -3 -52 -5z"/>
<path d="M3940 635 c-17 -20 5 -47 34 -43 23 3 34 34 17 51 -7 7 -8 3 -4 -11
3 -15 0 -24 -12 -28 -24 -10 -41 11 -25 31 7 8 10 15 7 15 -2 0 -10 -7 -17
-15z"/>
<path d="M4235 615 c-16 -15 -25 -36 -25 -55 0 -38 39 -80 75 -80 36 0 75 42
75 80 0 38 -39 80 -75 80 -14 0 -37 -11 -50 -25z"/>
<path d="M2021 598 c-68 -70 -45 -159 62 -238 60 -44 117 -42 164 5 33 33 35
39 31 89 -3 37 -12 63 -31 88 -36 46 -101 91 -124 85 -16 -4 -15 -5 3 -6 11 0
33 -15 50 -32 76 -79 -3 -207 -110 -178 -96 26 -96 170 -1 209 15 7 16 9 4 9
-9 1 -31 -13 -48 -31z"/>
<path d="M745 609 c-18 -27 20 -79 46 -63 16 10 9 21 -13 20 -19 -1 -23 4 -23
27 1 30 -1 32 -10 16z"/>
<path d="M786 607 c3 -10 9 -15 12 -12 3 3 0 11 -7 18 -10 9 -11 8 -5 -6z"/>
<path d="M871 600 c0 -8 4 -22 9 -30 12 -18 12 -2 0 25 -6 13 -9 15 -9 5z"/>
<path d="M4050 580 c0 -5 7 -10 16 -10 8 0 12 5 9 10 -3 6 -10 10 -16 10 -5 0
-9 -4 -9 -10z"/>
<path d="M2847 574 c-4 -4 -7 -35 -7 -70 0 -56 2 -62 23 -68 29 -8 77 -8 116
0 l32 7 -3 66 -3 66 -75 3 c-42 1 -79 0 -83 -4z m141 -66 l-3 -53 -60 0 -60 0
-3 53 -3 52 66 0 66 0 -3 -52z"/>
<path d="M4132 555 c0 -16 2 -22 5 -12 2 9 2 23 0 30 -3 6 -5 -1 -5 -18z"/>
<path d="M660 545 c-7 -8 -9 -22 -6 -31 4 -9 1 -24 -6 -32 -11 -13 -8 -12 13
1 14 10 33 15 41 12 10 -4 14 1 13 17 -1 45 -30 63 -55 33z m40 -15 c0 -13 -7
-20 -20 -20 -22 0 -23 1 -14 24 9 23 34 20 34 -4z"/>
<path d="M896 537 c3 -10 9 -15 12 -12 3 3 0 11 -7 18 -10 9 -11 8 -5 -6z"/>
<path d="M816 523 c-6 -14 -5 -15 5 -6 7 7 10 15 7 18 -3 3 -9 -2 -12 -12z"/>
<path d="M4573 524 c18 -21 14 -54 -6 -54 -7 0 -7 -4 1 -12 10 -10 15 -10 22
2 16 24 11 46 -12 66 l-23 19 18 -21z"/>
<path d="M3880 520 c0 -5 5 -10 11 -10 5 0 7 5 4 10 -3 6 -8 10 -11 10 -2 0
-4 -4 -4 -10z"/>
<path d="M4025 504 c0 -37 -28 -53 -53 -31 -10 9 -34 17 -53 17 -25 0 -30 -3
-19 -10 8 -5 23 -7 33 -4 9 3 29 -4 43 -15 34 -26 60 -27 74 -1 8 15 7 26 -6
45 -9 14 -17 25 -18 25 -1 0 -2 -12 -1 -26z"/>
<path d="M1414 505 c-10 -8 -14 -14 -9 -14 6 0 19 6 29 14 11 8 15 15 10 15
-6 0 -19 -7 -30 -15z"/>
<path d="M3788 499 c-2 -19 -9 -24 -30 -24 -32 1 -27 -10 14 -31 54 -28 77 5
39 55 l-19 25 -4 -25z"/>
<path d="M4517 486 c-16 -23 -15 -23 8 -12 14 6 25 17 25 24 0 20 -16 14 -33
-12z"/>
<path d="M744 470 c9 -13 16 -30 16 -38 0 -18 -46 -62 -65 -62 -9 0 -27 11
-40 25 -14 13 -25 20 -25 14 0 -15 47 -55 81 -69 77 -32 110 51 48 120 -17 20
-24 24 -15 10z"/>
<path d="M843 464 c-8 -20 21 -49 41 -41 17 7 22 42 7 51 -5 4 -7 -2 -4 -13 6
-22 -25 -38 -33 -16 -3 8 -3 19 1 25 3 5 4 10 0 10 -3 0 -8 -7 -12 -16z"/>
<path d="M1429 460 c13 -11 30 -20 39 -20 19 0 15 3 -28 24 l-35 17 24 -21z"/>
<path d="M2730 465 c-11 -13 -9 -15 11 -15 18 0 20 -3 11 -12 -20 -20 -13 -32
7 -14 22 20 21 50 -1 54 -8 2 -21 -4 -28 -13z"/>
<path d="M2387 463 c-12 -12 -7 -43 7 -43 18 0 39 27 31 40 -7 11 -28 13 -38
3z"/>
<path d="M1837 435 c-11 -7 -26 -11 -35 -8 -13 3 -13 1 2 -11 11 -9 22 -16 25
-16 16 1 33 19 29 33 -3 13 -6 14 -21 2z"/>
<path d="M2445 430 c-13 -14 -15 -24 -8 -31 8 -8 13 -7 18 2 5 8 4 10 -3 5 -7
-4 -12 -2 -12 3 0 13 10 14 29 2 7 -5 10 -14 7 -20 -9 -15 -39 -14 -55 2 -11
10 -13 9 -7 -6 3 -10 6 -21 6 -23 0 -2 11 -4 25 -4 15 0 31 10 41 26 16 24 16
26 -3 45 -19 20 -19 20 -38 -1z"/>
<path d="M4528 443 c-29 -7 -21 -25 10 -21 15 2 26 7 25 13 -2 12 -12 14 -35
8z"/>
<path d="M1673 413 c-12 -13 -19 -23 -14 -23 10 0 46 39 40 43 -2 2 -14 -7
-26 -20z"/>
<path d="M1530 401 c14 -4 45 -11 70 -14 38 -5 41 -4 20 5 -14 5 -45 12 -70
14 -33 2 -38 1 -20 -5z"/>
</g>
</svg>